<?xml version="1.0" encoding="UTF-8"?>
<svg width="767px" height="543px" viewBox="0 0 767 543" version="1.1" xmlns="http://www.w3.org/2000/svg" xmlns:xlink="http://www.w3.org/1999/xlink">
    <title>group</title>
    <defs>
        <linearGradient x1="50%" y1="0%" x2="50%" y2="100%" id="linearGradient-1">
            <stop stop-color="#F8F8F8" stop-opacity="0" offset="0%"></stop>
            <stop stop-color="#FFE8DD" stop-opacity="0.430807474" offset="47.1335989%"></stop>
            <stop stop-color="#FFC1A4" stop-opacity="0" offset="100%"></stop>
        </linearGradient>
        <linearGradient x1="50%" y1="0%" x2="50%" y2="100%" id="linearGradient-2">
            <stop stop-color="#F8F8F8" stop-opacity="0" offset="0%"></stop>
            <stop stop-color="#FFE8DD" stop-opacity="0.702305507" offset="47.1335989%"></stop>
            <stop stop-color="#FFC1A4" stop-opacity="0.236150568" offset="100%"></stop>
        </linearGradient>
        <linearGradient x1="50%" y1="77.3896876%" x2="50%" y2="0.544752156%" id="linearGradient-3">
            <stop stop-color="#F8F8F8" stop-opacity="0" offset="0%"></stop>
            <stop stop-color="#FFE8DD" stop-opacity="0.702305507" offset="65.9691871%"></stop>
            <stop stop-color="#FFD5C1" stop-opacity="0.781468531" offset="100%"></stop>
        </linearGradient>
        <linearGradient x1="50%" y1="100%" x2="35.4591396%" y2="1.42108547e-12%" id="linearGradient-4">
            <stop stop-color="#FFFEFD" offset="0%"></stop>
            <stop stop-color="#FBD8C9" offset="100%"></stop>
        </linearGradient>
        <linearGradient x1="59.3448531%" y1="100%" x2="35.4591396%" y2="1.42108547e-12%" id="linearGradient-5">
            <stop stop-color="#F5F5F5" offset="0%"></stop>
            <stop stop-color="#FFD0BC" offset="100%"></stop>
        </linearGradient>
        <linearGradient x1="55.9596342%" y1="100%" x2="43.1997074%" y2="1.42108547e-12%" id="linearGradient-6">
            <stop stop-color="#FFFFFF" offset="0%"></stop>
            <stop stop-color="#FFDED0" offset="100%"></stop>
        </linearGradient>
        <linearGradient x1="58.7824741%" y1="100%" x2="39.9786814%" y2="1.42108547e-12%" id="linearGradient-7">
            <stop stop-color="#FFFCFB" offset="0%"></stop>
            <stop stop-color="#FBE5DB" offset="100%"></stop>
        </linearGradient>
        <linearGradient x1="11.1878965%" y1="58.2579615%" x2="88.8121035%" y2="73.3249417%" id="linearGradient-8">
            <stop stop-color="#FFDED0" offset="0%"></stop>
            <stop stop-color="#FBC4AC" offset="60.3091936%"></stop>
            <stop stop-color="#F8BFA5" offset="100%"></stop>
        </linearGradient>
        <linearGradient x1="70.0075073%" y1="100%" x2="29.9924927%" y2="58.2948844%" id="linearGradient-9">
            <stop stop-color="#FBE2D6" offset="0%"></stop>
            <stop stop-color="#FAC9B3" offset="100%"></stop>
        </linearGradient>
        <linearGradient x1="64.470486%" y1="27.490853%" x2="50%" y2="78.9143965%" id="linearGradient-10">
            <stop stop-color="#FFF1EB" offset="0%"></stop>
            <stop stop-color="#FFD9C9" offset="100%"></stop>
        </linearGradient>
    </defs>
    <g id="page-1" stroke="none" stroke-width="1" fill="none" fill-rule="evenodd">
        <g id="Dashboard--404" transform="translate(-475.000000, -124.000000)">
            <g id="group" transform="translate(475.000000, 124.000000)">
                <g transform="translate(671.000000, 366.000000)">
                    <rect id="square" fill="#F9F1ED" x="10.78125" y="46" width="2.15625" height="24"></rect>
                    <ellipse id="circle" fill="url(#linearGradient-1)" cx="11.5" cy="23.4536082" rx="11.5" ry="23.4536082"></ellipse>
                </g>
                <g transform="translate(27.000000, 326.000000)">
                    <rect id="square" fill="#FBEAE2" x="13.8069989" y="65" width="2.76139979" height="32"></rect>
                    <ellipse id="circle" fill="url(#linearGradient-2)" cx="15.5" cy="32.3333333" rx="15.5" ry="32.3333333"></ellipse>
                </g>
                <g transform="translate(641.000000, 302.000000)">
                    <rect id="square" fill="#FBEAE2" x="13.8069989" y="64" width="2.76139979" height="33"></rect>
                    <ellipse id="circle" fill="url(#linearGradient-2)" cx="15.5" cy="32.3333333" rx="15.5" ry="32.3333333"></ellipse>
                </g>
                <g transform="translate(0.000000, 252.000000)">
                    <path d="M720.714178,290.267694 C717.865384,272.651599 713.584312,255.476766 707.985882,238.851019 C695.727741,202.447828 677.153913,168.677075 653.470742,138.670638 C587.068509,54.5394041 480.501004,0 360.357089,0 C240.213173,0 133.645668,54.5394041 67.2434356,138.670638 C43.5602648,168.677075 24.9864369,202.447828 12.728296,238.851019 C7.12986544,255.476766 2.84879338,272.651599 0,290.267694" id="path" fill="url(#linearGradient-3)"></path>
                    <ellipse id="circle" fill="url(#linearGradient-4)" transform="translate(290.669061, 102.658572) rotate(30.000000) translate(-290.669061, -102.658572) " cx="290.669061" cy="102.658572" rx="25.0212766" ry="28"></ellipse>
                    <ellipse id="circle" fill="url(#linearGradient-5)" transform="translate(478.690483, 58.036175) rotate(-26.000000) translate(-478.690483, -58.036175) " cx="478.690483" cy="58.0361746" rx="21" ry="23.5"></ellipse>
                    <ellipse id="circle" fill="url(#linearGradient-6)" transform="translate(150.142427, 123.564975) rotate(-31.000000) translate(-150.142427, -123.564975) " cx="150.142427" cy="123.564975" rx="16.5" ry="27"></ellipse>
                    <ellipse id="circle" fill="url(#linearGradient-7)" transform="translate(596.454787, 139.417921) rotate(20.000000) translate(-596.454787, -139.417921) " cx="596.454787" cy="139.417921" rx="16.6917293" ry="22.5"></ellipse>
                </g>
                <path d="M744.770692,284.901301 C740.510919,292.973327 735.090003,299.113292 728.507945,303.321197 C721.925888,307.529102 713.756573,310.077361 704,310.965975" id="path" stroke="#FCE9E0" stroke-width="3" stroke-linecap="round" transform="translate(724.385346, 297.933638) rotate(-23.000000) translate(-724.385346, -297.933638) "></path>
                <path d="M741.770692,308.901301 C737.510919,316.973327 732.090003,323.113292 725.507945,327.321197 C718.925888,331.529102 710.756573,334.077361 701,334.965975" id="path" stroke="#FCE9E0" stroke-width="3" stroke-linecap="round" transform="translate(721.385346, 321.933638) rotate(-6.000000) translate(-721.385346, -321.933638) "></path>
                <g transform="translate(221.897277, 27.452426)">
                    <polygon id="path" fill="#FDBB9C" points="128.518165 208.942824 236.789849 185.336434 144.877578 142.772836 36.18197 166.442952"></polygon>
                    <path d="M134.222723,226.2 C144.196056,226.2 153.28939,224.293333 161.502723,220.48 C169.716056,216.666667 176.71939,211.313333 182.512723,204.42 C188.306056,197.526667 192.77939,189.166667 195.932723,179.34 C199.086056,169.513333 200.662723,158.66 200.662723,146.78 C200.662723,134.9 199.04939,124.083333 195.822723,114.33 C192.596056,104.576667 188.086056,96.2533333 182.292723,89.36 C176.49939,82.4666667 169.532723,77.1133333 161.392723,73.3 C153.252723,69.4866667 144.196056,67.58 134.222723,67.58 C124.24939,67.58 115.156056,69.4866667 106.942723,73.3 C98.7293897,77.1133333 91.7260563,82.4666667 85.932723,89.36 C80.1393897,96.2533333 75.6293897,104.576667 72.402723,114.33 C69.1760563,124.083333 67.562723,134.9 67.562723,146.78 C67.562723,158.66 69.1393897,169.513333 72.292723,179.34 C75.4460563,189.166667 79.9193897,197.526667 85.712723,204.42 C91.5060563,211.313333 98.5460563,216.666667 106.832723,220.48 C115.11939,224.293333 124.24939,226.2 134.222723,226.2 Z M134.222723,196.28 C124.102723,196.28 116.072723,191.843333 110.132723,182.97 C104.192723,174.096667 101.222723,162.033333 101.222723,146.78 C101.222723,131.82 104.192723,119.866667 110.132723,110.92 C116.072723,101.973333 124.102723,97.5 134.222723,97.5 C144.342723,97.5 152.336056,101.936667 158.202723,110.81 C164.06939,119.683333 167.002723,131.673333 167.002723,146.78 C167.002723,162.033333 164.06939,174.096667 158.202723,182.97 C152.336056,191.843333 144.342723,196.28 134.222723,196.28 Z" id="0" fill="#FF9260" fill-rule="nonzero"></path>
                    <polygon id="path" fill="url(#linearGradient-8)" points="128.518165 208.942824 128.518165 308.573006 234.144484 276.853877 234.144484 188.685601"></polygon>
                    <polygon id="path" fill="url(#linearGradient-9)" points="128.518165 208.942824 128.518165 308.573006 39.848782 262.372041 39.848782 168.400707"></polygon>
                    <polygon id="path" fill="#FCE7DD" points="128.518165 208.942824 91.6904527 248.629303 0 205.124186 36.18197 166.442952"></polygon>
                    <polygon id="path" fill="#FFE8DD" points="128.518165 208.942824 168.84387 250.90193 270.88889 221.5347 236.789849 185.336434"></polygon>
                </g>
                <path d="M194.103068,303.245966 L194.103068,268.705966 L212.363068,268.705966 L212.363068,239.885966 L194.103068,239.885966 L194.103068,149.245966 L154.503068,149.245966 L77.9430684,240.765966 L77.9430684,268.705966 L160.223068,268.705966 L160.223068,303.245966 L194.103068,303.245966 Z M160.223068,239.885966 L113.143068,239.885966 L160.223068,183.125966 L160.223068,239.885966 Z" id="4" fill="#FF9260" fill-rule="nonzero" transform="translate(145.153068, 226.245966) rotate(-22.000000) translate(-145.153068, -226.245966) "></path>
                <path d="M595.438599,295.394435 L595.438599,260.854435 L613.698599,260.854435 L613.698599,232.034435 L595.438599,232.034435 L595.438599,141.394435 L555.838599,141.394435 L479.278599,232.914435 L479.278599,260.854435 L561.558599,260.854435 L561.558599,295.394435 L595.438599,295.394435 Z M561.558599,232.034435 L514.478599,232.034435 L561.558599,175.274435 L561.558599,232.034435 Z" id="4" fill="#FF9260" fill-rule="nonzero" transform="translate(546.488599, 218.394435) rotate(22.000000) translate(-546.488599, -218.394435) "></path>
                <g transform="translate(497.008869, 122.659579) rotate(21.000000) translate(-497.008869, -122.659579) translate(420.308884, 21.782322)">
                    <path d="M17.521855,188.481724 C17.521855,192.490312 13.998357,130.471479 38.513394,118.550275 C63.028431,106.629071 63.6159975,140.290733 49.371599,140.290733 C35.1272004,140.290733 31.7097522,108.153967 53.1882031,90.5364018 C67.5071703,78.7913582 88.0405247,71.9632766 114.788266,70.052157" id="path2" stroke="#F8C8B4" stroke-width="3" stroke-dasharray="4" transform="translate(66.067235, 129.359895) rotate(-20.000000) translate(-66.067235, -129.359895) "></path>
                    <g transform="translate(105.933661, 30.105465) rotate(-2.000000) translate(-105.933661, -30.105465) translate(59.433661, 1.605465)" fill-rule="nonzero" id="path">
                        <polygon fill="#FFE0D3" points="4.58676234e-13 13.8689839 91.4653466 7.20449341e-14 17.3415841 24.3850267"></polygon>
                        <polygon fill="#FFB494" points="17.8019802 25.4518717 91.9257426 1.06684492 27.1633663 30.4812834 28.2376237 52.8850267"></polygon>
                        <polygon fill="#FAC9B4" points="29.9257426 57 28.6980198 34.5962566 44.8118812 44.8074866"></polygon>
                        <polygon fill="#FFE0D3" points="56.6287128 50.2941176 44.3514851 42.368984 28.2376237 32.157754 93 2.74331547"></polygon>
                    </g>
                </g>
                <g transform="translate(167.147529, 38.610979)" id="path">
                    <g transform="translate(0.000000, 0.000000)">
                        <path d="M24.9791234,3.75166564e-13 C25.4534383,7.55021089 24.0769537,13.7049547 20.8496695,18.4642314 C17.9583101,22.7281197 12.0789773,28.1312354 3.21167091,34.6735786 C2.31570762,35.3345991 2.12527231,36.5967875 2.78630949,37.4927385 C3.0377227,37.8334969 3.39005455,38.0864352 3.79332034,38.2156697 L42.1168686,50.497204 C43.9078703,51.0711718 45.8639591,50.7792809 47.4093749,49.7074525 C55.4401646,44.1376709 60.8531568,38.449424 63.6483517,32.642712 C66.7254497,26.2503769 67.9949095,18.7918475 67.4567311,10.2671237 L61.0191758,1.84490408 L24.9791234,3.75166564e-13 Z" fill="url(#linearGradient-10)"></path>
                        <path d="M61.0372716,1.91314329 L59.5614125,11.4058798 C64.7997088,12.1314149 67.4676597,13.2749486 67.5652652,14.8364808 C67.5769028,15.0226645 68.2614162,10.8580103 66.4903419,7.38304695 C65.3096257,5.06640472 63.4919356,3.2431035 61.0372716,1.91314329 Z" fill="#FFE0D2"></path>
                        <line x1="20.8661777" y1="29.5377383" x2="48.6898236" y2="38.015905" stroke="#F5D0C1" stroke-width="1.2" stroke-linecap="round"></line>
                        <line x1="28.0801104" y1="23.2945107" x2="45.0759966" y2="27.6154631" stroke="#F5D0C1" stroke-width="1.2" stroke-linecap="round"></line>
                        <line x1="34.7780006" y1="15.4548138" x2="56.8887941" y2="20.3838177" stroke="#F5D0C1" stroke-width="1.2" stroke-linecap="round"></line>
                    </g>
                </g>
                <g id="group38" transform="translate(733.021269, 174.051600) scale(-1, 1) translate(-733.021269, -174.051600) translate(699.168799, 148.357090)">
                    <g id="group10" transform="translate(0.000000, 0.000000)">
                        <path d="M24.9791234,3.75166564e-13 C25.4534383,7.55021089 24.0769537,13.7049547 20.8496695,18.4642314 C17.9583101,22.7281197 12.0789773,28.1312354 3.21167091,34.6735786 C2.31570762,35.3345991 2.12527231,36.5967875 2.78630949,37.4927385 C3.0377227,37.8334969 3.39005455,38.0864352 3.79332034,38.2156697 L42.1168686,50.497204 C43.9078703,51.0711718 45.8639591,50.7792809 47.4093749,49.7074525 C55.4401646,44.1376709 60.8531568,38.449424 63.6483517,32.642712 C66.7254497,26.2503769 67.9949095,18.7918475 67.4567311,10.2671237 L61.0191758,1.84490408 L24.9791234,3.75166564e-13 Z" id="path" fill="url(#linearGradient-10)"></path>
                        <path d="M61.0372716,1.91314329 L59.5614125,11.4058798 C64.7997088,12.1314149 67.4676597,13.2749486 67.5652652,14.8364808 C67.5769028,15.0226645 68.2614162,10.8580103 66.4903419,7.38304695 C65.3096257,5.06640472 63.4919356,3.2431035 61.0372716,1.91314329 Z" id="path" fill="#FFE0D2"></path>
                        <line x1="20.8661777" y1="29.5377383" x2="48.6898236" y2="38.015905" id="path" stroke="#F5D0C1" stroke-width="1.2" stroke-linecap="round"></line>
                        <line x1="28.0801104" y1="23.2945107" x2="45.0759966" y2="27.6154631" id="path" stroke="#F5D0C1" stroke-width="1.2" stroke-linecap="round"></line>
                        <line x1="34.7780006" y1="15.4548138" x2="56.8887941" y2="20.3838177" id="path" stroke="#F5D0C1" stroke-width="1.2" stroke-linecap="round"></line>
                    </g>
                </g>
            </g>
        </g>
    </g>
</svg>