<?xml version="1.0" encoding="UTF-8"?>
<svg width="798px" height="508px" viewBox="0 0 798 508" version="1.1" xmlns="http://www.w3.org/2000/svg" xmlns:xlink="http://www.w3.org/1999/xlink">
    <title>group</title>
    <defs>
        <linearGradient x1="50%" y1="0%" x2="50%" y2="100%" id="linearGradient-1">
            <stop stop-color="#F8F8F8" stop-opacity="0" offset="0%"></stop>
            <stop stop-color="#FFE8DD" stop-opacity="0.702305507" offset="47.1335989%"></stop>
            <stop stop-color="#FFC1A4" stop-opacity="0.236150568" offset="100%"></stop>
        </linearGradient>
        <linearGradient x1="50%" y1="0%" x2="50%" y2="100%" id="linearGradient-2">
            <stop stop-color="#F8F8F8" stop-opacity="0" offset="0%"></stop>
            <stop stop-color="#FFE8DD" stop-opacity="0.702305507" offset="47.1335989%"></stop>
            <stop stop-color="#FFC1A4" stop-opacity="0.236150568" offset="100%"></stop>
        </linearGradient>
        <linearGradient x1="50%" y1="0%" x2="50%" y2="100%" id="linearGradient-3">
            <stop stop-color="#F8F8F8" stop-opacity="0" offset="0%"></stop>
            <stop stop-color="#FFE8DD" stop-opacity="0.430807474" offset="47.1335989%"></stop>
            <stop stop-color="#FFC1A4" stop-opacity="0" offset="100%"></stop>
        </linearGradient>
        <linearGradient x1="50%" y1="77.3896876%" x2="50%" y2="0.544752156%" id="linearGradient-4">
            <stop stop-color="#F8F8F8" stop-opacity="0" offset="0%"></stop>
            <stop stop-color="#FFE8DD" stop-opacity="0.702305507" offset="65.9691871%"></stop>
            <stop stop-color="#FFD5C1" stop-opacity="0.781468531" offset="100%"></stop>
        </linearGradient>
        <linearGradient x1="50%" y1="100%" x2="35.628088%" y2="1.42108547e-12%" id="linearGradient-5">
            <stop stop-color="#FFF9F6" offset="0%"></stop>
            <stop stop-color="#FBD8C9" offset="100%"></stop>
        </linearGradient>
        <linearGradient x1="59.3449143%" y1="100%" x2="35.4590445%" y2="1.42108547e-12%" id="linearGradient-6">
            <stop stop-color="#F5F5F5" offset="0%"></stop>
            <stop stop-color="#FFD0BC" offset="100%"></stop>
        </linearGradient>
        <linearGradient x1="55.959664%" y1="100%" x2="43.1996735%" y2="1.42108547e-12%" id="linearGradient-7">
            <stop stop-color="#FFFFFF" offset="0%"></stop>
            <stop stop-color="#FFDED0" offset="100%"></stop>
        </linearGradient>
        <linearGradient x1="58.7825456%" y1="100%" x2="39.9785998%" y2="1.42108547e-12%" id="linearGradient-8">
            <stop stop-color="#FFFCFB" offset="0%"></stop>
            <stop stop-color="#FBE5DB" offset="100%"></stop>
        </linearGradient>
        <linearGradient x1="40.43498%" y1="68.6904881%" x2="50%" y2="31.3095119%" id="linearGradient-9">
            <stop stop-color="#F8F8F8" stop-opacity="0" offset="0%"></stop>
            <stop stop-color="#FFE8DD" stop-opacity="0.702305507" offset="47.1335989%"></stop>
            <stop stop-color="#FFC1A4" stop-opacity="0.236150568" offset="100%"></stop>
        </linearGradient>
        <linearGradient x1="40.43498%" y1="68.5034722%" x2="50%" y2="31.4965278%" id="linearGradient-10">
            <stop stop-color="#F8F8F8" stop-opacity="0" offset="0%"></stop>
            <stop stop-color="#FFE8DD" stop-opacity="0.702305507" offset="47.1335989%"></stop>
            <stop stop-color="#FFC1A4" stop-opacity="0.236150568" offset="100%"></stop>
        </linearGradient>
        <linearGradient x1="48.1729972%" y1="100%" x2="49.9621204%" y2="2.07331731%" id="linearGradient-11">
            <stop stop-color="#F8F8F8" stop-opacity="0" offset="0%"></stop>
            <stop stop-color="#FFE8DD" stop-opacity="0.702305507" offset="47.1335989%"></stop>
            <stop stop-color="#FCB797" stop-opacity="0.236150568" offset="100%"></stop>
        </linearGradient>
        <linearGradient x1="48.1653806%" y1="100%" x2="50%" y2="0%" id="linearGradient-12">
            <stop stop-color="#F8F8F8" stop-opacity="0" offset="0%"></stop>
            <stop stop-color="#FFE8DD" stop-opacity="0.702305507" offset="47.1335989%"></stop>
            <stop stop-color="#FCB797" stop-opacity="0.236150568" offset="97.9266827%"></stop>
        </linearGradient>
        <linearGradient x1="48.1691942%" y1="100%" x2="50%" y2="0%" id="linearGradient-13">
            <stop stop-color="#F8F8F8" stop-opacity="0" offset="0%"></stop>
            <stop stop-color="#FFE8DD" stop-opacity="0.702305507" offset="47.1335989%"></stop>
            <stop stop-color="#FCB797" stop-opacity="0.236150568" offset="97.9266827%"></stop>
        </linearGradient>
    </defs>
    <g id="page-1" stroke="none" stroke-width="1" fill="none" fill-rule="evenodd">
        <g id="Dashboard--500page" transform="translate(-449.000000, -165.000000)">
            <g id="group" transform="translate(449.000000, 165.000000)">
                <g transform="translate(745.348960, 255.026135) rotate(-5.000000) translate(-745.348960, -255.026135) translate(725.726149, 231.103421)" id="path" stroke="#FCE9E0" stroke-linecap="round" stroke-width="2.43">
                    <path d="M36.4437248,5.60939024 C32.9930441,12.149668 28.6030694,17.1252006 23.2738006,20.5359882 C17.9445319,23.9467758 11.330958,26.013629 3.43307881,26.7365479" transform="translate(19.938402, 16.172969) rotate(-23.000000) translate(-19.938402, -16.172969) "></path>
                    <path d="M34.010278,25.0573169 C30.5619363,31.5976428 26.1740117,36.5727231 20.8465043,39.982558 C15.5189968,43.3923929 8.90700936,45.4577313 1.01054186,46.1785734" transform="translate(17.510410, 35.617945) rotate(-6.000000) translate(-17.510410, -35.617945) "></path>
                </g>
                <g transform="translate(61.104462, 225.454527)">
                    <g transform="translate(29.945233, 69.677831)">
                        <rect id="square" fill="#FBEAE2" x="13.4668997" y="56.3720548" width="3.89302623" height="44.9038623"></rect>
                        <ellipse id="circle" fill="url(#linearGradient-1)" cx="15.4134128" cy="32.0031898" rx="15.4134128" ry="32.0031898"></ellipse>
                    </g>
                    <g transform="translate(618.328600, 52.041485)">
                        <rect id="shape" fill="#FBEAE2" x="14.2473256" y="62.8826666" width="3.89302623" height="46.307108"></rect>
                        <ellipse id="circle" fill="url(#linearGradient-2)" cx="16.1938387" cy="31.5980861" rx="16.1938387" ry="31.5980861"></ellipse>
                    </g>
                    <g transform="translate(653.939148, 108.567783)">
                        <rect id="square" fill="#F9F1ED" x="13.2022059" y="58.0339941" width="2.73149087" height="30.2786056"></rect>
                        <ellipse id="circle" fill="url(#linearGradient-3)" cx="14.5679513" cy="29.5892731" rx="14.5679513" ry="29.5892731"></ellipse>
                    </g>
                    <path d="M700.070994,281.952153 C697.303798,264.840721 693.145347,248.157909 687.70727,232.008455 C675.800235,196.648136 657.758412,163.844842 634.75359,134.698024 C570.253295,52.9769682 466.738169,2.48467401e-13 350.035497,2.48467401e-13 C233.332825,2.48467401e-13 129.817699,52.9769682 65.3174036,134.698024 C42.3125822,163.844842 24.2707584,196.648136 12.3637235,232.008455 C6.92564701,248.157909 2.76719631,264.840721 0,281.952153" id="path" fill="url(#linearGradient-4)"></path>
                    <ellipse id="circle" fill="url(#linearGradient-5)" transform="translate(303.854202, 120.025135) rotate(30.000000) translate(-303.854202, -120.025135) " cx="303.854202" cy="120.025135" rx="19.4292463" ry="21.8696735"></ellipse>
                    <ellipse id="circle" fill="url(#linearGradient-6)" transform="translate(464.979506, 56.373564) rotate(-26.000000) translate(-464.979506, -56.373564) " cx="464.979506" cy="56.3735639" rx="20.398483" ry="22.8267992"></ellipse>
                    <ellipse id="circle" fill="url(#linearGradient-7)" transform="translate(145.841946, 120.025106) rotate(-31.000000) translate(-145.841946, -120.025106) " cx="145.841946" cy="120.025106" rx="16.0273732" ry="26.2265454"></ellipse>
                    <ellipse id="circle" fill="url(#linearGradient-8)" transform="translate(579.370725, 135.423900) rotate(20.000000) translate(-579.370725, -135.423900) " cx="579.370725" cy="135.4239" rx="16.2136234" ry="21.8554373"></ellipse>
                </g>
                <path d="M80.847818,51.38558 C94.779697,51.38558 106.395547,61.3124204 109.022541,74.4860453 C116.447571,74.8163957 123.873181,75.3488999 131.298791,76.0817802 C142.396862,77.1771094 150.854917,86.5110381 150.854917,97.6630301 C150.854917,109.294038 142.552151,119.267424 131.113901,121.376167 C117.595863,123.868354 104.077824,125.114448 90.5597855,125.114448 C77.0417469,125.114448 63.5237083,123.868354 50.0056696,121.376167 C38.5674199,119.267424 30.2646537,109.294038 30.2646537,97.6630301 C30.2646537,86.5110381 38.7227086,77.1771094 49.8207796,76.0817802 C50.693263,75.9956693 51.5657464,75.9123247 52.4382297,75.8317464 C54.5178491,61.9945082 66.4452502,51.38558 80.847818,51.38558 Z" id="square" fill="url(#linearGradient-9)"></path>
                <path d="M211.06,209.31 C220.02,209.31 228.245,208.085 235.735,205.635 C243.225,203.185 249.595,199.755 254.845,195.345 C260.095,190.935 264.19,185.58 267.13,179.28 C270.07,172.98 271.54,166.05 271.54,158.49 C271.54,145.05 266.99,134.235 257.89,126.045 C248.79,117.855 236.82,113.76 221.98,113.76 C216.8,113.76 211.795,114.32 206.965,115.44 C202.135,116.56 197.55,118.24 193.21,120.48 L193.21,120.48 L194.68,87.51 L263.77,87.51 L263.77,60 L167.59,60 L164.02,138.96 L186.7,145.68 C190.9,143.44 195.03,141.725 199.09,140.535 C203.15,139.345 207.21,138.75 211.27,138.75 C218.97,138.75 225.41,140.78 230.59,144.84 C235.77,148.9 238.36,154.01 238.36,160.17 C238.36,166.61 235.98,171.755 231.22,175.605 C226.46,179.455 220.3,181.38 212.74,181.38 C206.3,181.38 200.21,180.26 194.47,178.02 C188.73,175.78 182.78,172.14 176.62,167.1 L176.62,167.1 L157.3,189.57 C164.86,196.01 173.19,200.91 182.29,204.27 C191.39,207.63 200.98,209.31 211.06,209.31 Z" id="5" fill="#FF9260" fill-rule="nonzero"></path>
                <path d="M407.66,209.1 C417.18,209.1 425.86,207.28 433.7,203.64 C441.54,200 448.225,194.89 453.755,188.31 C459.285,181.73 463.555,173.75 466.565,164.37 C469.575,154.99 471.08,144.63 471.08,133.29 C471.08,121.95 469.54,111.625 466.46,102.315 C463.38,93.005 459.075,85.06 453.545,78.48 C448.015,71.9 441.365,66.79 433.595,63.15 C425.825,59.51 417.18,57.69 407.66,57.69 C398.14,57.69 389.46,59.51 381.62,63.15 C373.78,66.79 367.095,71.9 361.565,78.48 C356.035,85.06 351.73,93.005 348.65,102.315 C345.57,111.625 344.03,121.95 344.03,133.29 C344.03,144.63 345.535,154.99 348.545,164.37 C351.555,173.75 355.825,181.73 361.355,188.31 C366.885,194.89 373.605,200 381.515,203.64 C389.425,207.28 398.14,209.1 407.66,209.1 Z M407.66,180.54 C398,180.54 390.335,176.305 384.665,167.835 C378.995,159.365 376.16,147.85 376.16,133.29 C376.16,119.01 378.995,107.6 384.665,99.06 C390.335,90.52 398,86.25 407.66,86.25 C417.32,86.25 424.95,90.485 430.55,98.955 C436.15,107.425 438.95,118.87 438.95,133.29 C438.95,147.85 436.15,159.365 430.55,167.835 C424.95,176.305 417.32,180.54 407.66,180.54 Z" id="0" fill="#FF9260" fill-rule="nonzero"></path>
                <path d="M607.66,209.1 C617.18,209.1 625.86,207.28 633.7,203.64 C641.54,200 648.225,194.89 653.755,188.31 C659.285,181.73 663.555,173.75 666.565,164.37 C669.575,154.99 671.08,144.63 671.08,133.29 C671.08,121.95 669.54,111.625 666.46,102.315 C663.38,93.005 659.075,85.06 653.545,78.48 C648.015,71.9 641.365,66.79 633.595,63.15 C625.825,59.51 617.18,57.69 607.66,57.69 C598.14,57.69 589.46,59.51 581.62,63.15 C573.78,66.79 567.095,71.9 561.565,78.48 C556.035,85.06 551.73,93.005 548.65,102.315 C545.57,111.625 544.03,121.95 544.03,133.29 C544.03,144.63 545.535,154.99 548.545,164.37 C551.555,173.75 555.825,181.73 561.355,188.31 C566.885,194.89 573.605,200 581.515,203.64 C589.425,207.28 598.14,209.1 607.66,209.1 Z M607.66,180.54 C598,180.54 590.335,176.305 584.665,167.835 C578.995,159.365 576.16,147.85 576.16,133.29 C576.16,119.01 578.995,107.6 584.665,99.06 C590.335,90.52 598,86.25 607.66,86.25 C617.32,86.25 624.95,90.485 630.55,98.955 C636.15,107.425 638.95,118.87 638.95,133.29 C638.95,147.85 636.15,159.365 630.55,167.835 C624.95,176.305 617.32,180.54 607.66,180.54 Z" id="0" fill="#FF9260" fill-rule="nonzero"></path>
                <path d="M693.594595,10 C707.504741,10 719.090652,19.9108726 721.621628,33.0292186 C729.494807,33.3834641 737.368389,33.962162 745.241972,34.7654502 C755.32825,35.7944825 763,44.2887527 763,54.4273871 L763,55.9001383 C763,67.3717 754.806916,77.206539 743.524062,79.2787211 C730.016041,81.7595737 716.508021,83 703,83 C689.491979,83 675.983959,81.7595737 662.475938,79.2787211 C651.193084,77.206539 643,67.3717 643,55.9001383 L643,54.4273855 C643.000002,44.2887531 650.671751,35.7944846 660.758026,34.7654504 C662.288547,34.6093017 663.819068,34.4616395 665.349589,34.3224637 C667.344944,20.5681826 679.230578,10 693.594595,10 Z" id="shape" fill="url(#linearGradient-10)" transform="translate(703.000000, 46.500000) scale(-1, 1) translate(-703.000000, -46.500000) "></path>
                <g transform="translate(485.429349, 122.023301)" id="circle">
                    <path d="M7.41411122,26.5896614 C10.5430436,26.5901286 13.0776377,13.8045747 13.0769406,9.12945992 C13.0762432,4.45434518 10.5391772,0.664037183 7.41024477,0.663570068 C4.28131237,0.663102953 1.74537671,4.4526536 1.74605878,9.12776835 C1.74677114,13.8028831 4.28517883,26.5891943 7.41411122,26.5896614 Z" fill="url(#linearGradient-11)" transform="translate(7.411500, 13.626616) rotate(8.000000) translate(-7.411500, -13.626616) "></path>
                    <path d="M38.169246,55.7430718 C41.3014364,55.7435389 43.8386716,42.9712847 43.8379746,38.3010329 C43.8372772,33.6307811 41.29757,29.8444154 38.1653795,29.8439482 C35.0331891,29.8434811 32.4946122,33.6290896 32.4953093,38.2993413 C32.4960067,42.9695931 35.0370555,55.7426046 38.169246,55.7430718 Z" fill="url(#linearGradient-12)" transform="translate(38.166642, 42.793510) rotate(82.000000) translate(-38.166642, -42.793510) "></path>
                    <path d="M26.0345025,37.1139885 C29.1650639,37.1156832 31.6959676,24.3377743 31.69344,19.665091 C31.6909086,14.9924077 29.1510366,11.2030757 26.0204752,11.2013805 C22.8899138,11.1996864 20.3541429,14.9862708 20.3566704,19.658954 C20.3592018,24.3316373 22.9039411,37.1122938 26.0345025,37.1139885 Z" fill="url(#linearGradient-13)" transform="translate(26.025055, 24.157684) rotate(45.000000) translate(-26.025055, -24.157684) "></path>
                </g>
                <g transform="translate(402.021210, 252.045450) rotate(-8.000000) translate(-402.021210, -252.045450) translate(292.196198, 175.331076)">
                    <path d="M19.9922178,4.29630915 L194.152343,9.18336821 C203.922513,9.45752624 211.835626,17.2053741 212.315902,26.9675828 L217.530398,132.958549 C218.038181,143.279866 210.082741,152.058586 199.761424,152.56637 C199.481488,152.580142 199.201279,152.587622 198.921007,152.588806 L21.2718783,153.338928 C9.64086519,153.38804 0.172253025,143.999054 0.123141134,132.368041 C0.122844148,132.297707 0.12289951,132.227372 0.123307218,132.157038 L0.756694517,22.8914854 C0.816596174,12.5578591 9.24221536,4.22935964 19.5758417,4.2892613 C19.7146556,4.29006597 19.8534562,4.2924154 19.9922178,4.29630915 Z" id="square" fill="#FFB18F"></path>
                    <path d="M24.6977368,0 L200.939023,0 C211.272823,1.6458228e-14 219.650023,8.37720005 219.650023,18.711 L219.650023,128.341632 C219.650023,138.675432 211.272823,147.052632 200.939023,147.052632 L24.6977368,147.052632 C14.3639369,147.052632 5.98673683,138.675432 5.98673683,128.341632 L5.98673683,18.711 C5.98673683,8.37720005 14.3639369,1.89828826e-15 24.6977368,0 Z" id="square" fill="#FBC9B3"></path>
                    <rect id="square" fill="#FFE9DE" x="23.7920107" y="18.7157895" width="178.052738" height="96.2526316" rx="8.5536"></rect>
                    <rect id="square" fill="#FBD1BE" x="87.8909965" y="44.5614035" width="81.1920487" height="5.70385965" rx="2.8512"></rect>
                    <rect id="square" fill="#FBD1BE" x="87.8909965" y="64.1684211" width="81.1920487" height="5.70385965" rx="2.8512"></rect>
                    <rect id="square" fill="#FBD1BE" x="87.534891" y="82.8842105" width="81.1920487" height="5.70385965" rx="2.8512"></rect>
                    <rect id="square" fill="#FBD1BE" x="56.7317673" y="44.5614035" width="12.8197972" height="44.5614035" rx="2.8512"></rect>
                    <ellipse id="circle" fill="#FFE9DE" cx="112.81838" cy="131.010526" rx="8.01237323" ry="8.02105263"></ellipse>
                    <ellipse id="circle" fill="#FFE9DE" cx="87.0007328" cy="131.010526" rx="5.34158215" ry="5.34736842"></ellipse>
                    <ellipse id="circle" fill="#FFE9DE" cx="138.636027" cy="131.010526" rx="5.34158215" ry="5.34736842"></ellipse>
                </g>
                <g transform="translate(511.333207, 286.980464) rotate(21.000000) translate(-511.333207, -286.980464) translate(440.469401, 225.792846)">
                    <path d="M80.617019,94.5649365 L95.9823648,94.5502878 L95.9633225,115.58302 C95.9608805,118.280312 93.7749715,120.466326 91.0776798,120.468897 L85.4929604,120.474222 C82.7921197,120.476797 80.6005683,118.28942 80.5979934,115.588579 C80.5979905,115.585549 80.5979905,115.582519 80.5979932,115.579489 L80.617019,94.5649365 L80.617019,94.5649365 Z" id="square" fill="#FBC9B3" transform="translate(88.287961, 107.514590) rotate(-21.000000) translate(-88.287961, -107.514590) "></path>
                    <path d="M75.1372371,24.6106954 L124.941725,92.706205 C126.642446,95.0315268 126.136107,98.2952794 123.810785,99.9960005 C122.918424,100.648665 121.841774,101.00093 120.736207,101.001958 L21.0007741,101.094694 C18.1198773,101.097373 15.7822774,98.7641158 15.7795987,95.8832189 C15.7785667,94.7733384 16.131568,93.692059 16.7872812,92.7965837 L66.7182267,24.6083383 C68.4202495,22.2839691 71.6842852,21.7794577 74.0086543,23.4814805 C74.4405623,23.7977458 74.8212138,24.1786104 75.1372371,24.6106954 Z" id="square" fill="#FE9D71" transform="translate(70.853077, 59.980846) rotate(-21.000000) translate(-70.853077, -59.980846) "></path>
                    <path d="M70.8279948,44.0735107 C73.7214289,44.0708204 76.0692017,46.4142312 76.0718921,49.3076653 C76.0720106,49.4351785 76.0674738,49.5626535 76.0582907,49.6898357 L74.3165239,73.8125372 C74.1720123,75.813958 72.5070909,77.3644438 70.5004606,77.3663096 C68.5054939,77.3681646 66.8586651,75.8070363 66.7540023,73.8148162 L65.4874908,49.70719 C65.3323934,46.7549623 67.5999155,44.2359775 70.5521433,44.0808801 C70.6440152,44.0760536 70.7359962,44.0735963 70.8279948,44.0735107 Z" id="square" fill="#FFEDE4" transform="translate(70.827995, 60.718945) rotate(-21.000000) translate(-70.827995, -60.718945) "></path>
                    <ellipse id="circle" fill="#FFEDE4" transform="translate(79.953009, 84.599712) rotate(-21.000000) translate(-79.953009, -84.599712) " cx="79.9530089" cy="84.5997117" rx="4.74627416" ry="4.75607681"></ellipse>
                </g>
                <g transform="translate(279.483721, 52.345708)">
                    <g fill-rule="nonzero" id="path">
                        <path d="M36.342999,46.3648137 C36.2620698,46.2909621 36.1695793,46.2341533 36.0713081,46.1887062 C38.424036,42.979005 39.8056134,39.0364695 39.8056134,34.7814851 C39.8056134,23.9764381 30.9033995,15.2221913 19.9028067,15.2221913 C8.91377517,15.2221913 0,23.9764381 0,34.7814851 C0,45.5808513 8.90799451,54.340779 19.9028067,54.340779 C24.9146375,54.340779 29.4986995,52.5172143 33.0017785,49.5063442 C33.0480238,49.5745148 33.094269,49.6426855 33.1578563,49.6994943 C33.585625,50.0914755 34.3024266,50.0233049 34.753318,49.5461104 L36.2851924,47.9384194 C36.7476451,47.455544 36.7707677,46.7567949 36.342999,46.3648137 Z" fill="#FFD8C6"></path>
                        <path d="M37.4355434,47.9497811 L34.8515892,50.6652451 C34.0885423,51.4662502 45.1931869,62.9189183 45.9157692,63.5779012 C46.6383515,64.242565 47.8407285,64.1175855 48.609556,63.3165804 L51.1935103,60.6124782 C51.9623379,59.8114732 52.0028025,58.6184869 51.2802202,57.959504 C50.5576379,57.3005211 38.204371,47.154457 37.4355434,47.9497811 Z" fill="#FFD8C6"></path>
                        <path d="M27.2178346,7.07285144 L30.6195415,7.07285144 L30.6195415,10.4826094 C30.6195415,11.153606 31.1613456,11.7082052 31.8471736,11.7082052 C32.5330016,11.7082052 33.0885223,11.1672998 33.0885223,10.4826094 L33.0885223,7.07285144 L36.4627961,7.07285144 C37.1486241,7.07285144 37.7041448,6.53194606 37.7041448,5.8472557 C37.7041448,5.16941224 37.1623407,4.62165995 36.4765127,4.62165995 L33.0885223,4.62165995 L33.0885223,1.23928956 C33.0885223,0.554599194 32.5330016,0 31.8471736,0 C31.1613456,0 30.6126832,0.54775229 30.6195415,1.23244265 L30.6195415,4.62165995 L27.2178346,4.62165995 C26.5457231,4.62165995 25.9902025,5.16256533 25.9902025,5.8472557 C25.9902025,6.51825225 26.5320066,7.07285144 27.2178346,7.07285144 L27.2178346,7.07285144 Z" fill="#FFE3D6"></path>
                    </g>
                    <ellipse id="circle" fill="#FFE9DE" cx="19.5460982" cy="34.7358666" rx="13.6822687" ry="13.6595727"></ellipse>
                    <path d="M24.4336226,31.8128253 C24.4308557,28.039176 21.3670803,24.9777858 17.5904886,24.9750189" id="path" stroke="#FFFFFF" stroke-width="2.916" stroke-linecap="round" transform="translate(21.012056, 28.393922) rotate(-31.000000) translate(-21.012056, -28.393922) "></path>
                </g>
            </g>
        </g>
    </g>
</svg>