<svg xmlns="http://www.w3.org/2000/svg" xmlns:xlink="http://www.w3.org/1999/xlink" fill="none" version="1.1" width="122" height="122" viewBox="0 0 122 122"><g style="mix-blend-mode:passthrough"><g><path d="M61,1C27.7692,1,1,27.7692,1,61C1,94.2308,27.7692,121,61,121C94.2308,121,121,94.2308,121,61C121,27.7692,94.2308,1,61,1ZM61,111.769C32.846199999999996,111.769,10.23077,89.1538,10.23077,61C10.23077,32.846199999999996,32.846199999999996,10.23077,61,10.23077C89.1538,10.23077,111.769,32.846199999999996,111.769,61C111.769,89.1538,89.1538,111.769,61,111.769Z" fill="#F8F8F8" fill-opacity="1"/><path d="M84.7828,4.78049Q73.4462,0,61,0Q48.5538,0,37.2172,4.7805Q26.2629,9.39978,17.8314,17.8314Q9.39978,26.2629,4.7805,37.2172Q0.000008000000000008,48.5538,0.000008000000000008,61Q0,73.4462,4.7805,84.7828Q9.39978,95.7371,17.8314,104.169Q26.263,112.6,37.2172,117.22Q48.5539,122,61,122Q73.4461,122,84.7828,117.22Q95.7371,112.6,104.169,104.169Q112.6,95.7371,117.22,84.7828Q122,73.4461,122,61Q122,48.5539,117.22,37.2172Q112.6,26.263,104.169,17.8314Q95.7371,9.39977,84.7828,4.78049ZM1,61C1,27.7692,27.7692,1,61,1C94.2308,1,121,27.7692,121,61C121,94.2308,94.2308,121,61,121C27.7692,121,1,94.2308,1,61ZM10.23077,61C10.23077,89.1538,32.846199999999996,111.769,61,111.769C89.1538,111.769,111.769,89.1538,111.769,61C111.769,32.846199999999996,89.1538,10.23077,61,10.23077C32.846199999999996,10.23077,10.23077,32.846199999999996,10.23077,61ZM80.422,106.874Q71.1724,110.769,61,110.769Q50.8276,110.769,41.578,106.874Q32.6395,103.11,25.7648,96.2352Q18.8901,89.3605,15.1259,80.422Q11.2308,71.1723,11.2308,61Q11.2308,50.8277,15.1259,41.578Q18.8901,32.6395,25.7648,25.7648Q32.6395,18.89,41.578,15.1259Q50.8277,11.2308,61,11.2308Q71.1723,11.2308,80.422,15.1259Q89.3605,18.8901,96.2352,25.7648Q103.11,32.6395,106.874,41.578Q110.769,50.8276,110.769,61Q110.769,71.1724,106.874,80.422Q103.11,89.3605,96.2352,96.2352Q89.3605,103.11,80.422,106.874Z" fill-rule="evenodd" fill="#F8F8F8" fill-opacity="1"/></g><g transform="matrix(0.9825831651687622,0.18582330644130707,-0.18582332134246826,0.9825831651687622,6.765436658429735,-6.519413424698087)"><path d="M91.7922328125,33.302941796142576C90.0962328125,32.33023579614258,87.92883281249999,32.907927396142576,86.9498328125,34.59302479614258L65.6333328125,72.85453479614259L43.4790328125,60.14833479614258C41.7831128125,59.17643479614258,39.6153628125,59.75413479614258,38.6366138125,61.43883479614258C37.6578648125,63.123434796142575,38.2385630125,65.27753479614258,39.9338028125,66.25053479614257L65.1597328125,80.71773479614258C66.8554328125,81.69103479614259,69.0242328125,81.11333479614258,70.0027328125,79.42783479614258L93.0925328125,38.11578479614258C94.0714328125,36.430564796142576,93.48843281250001,34.275454796142576,91.7922328125,33.302941796142576Z" fill="#F8F8F8" fill-opacity="1"/><path d="M94.8936328125,35.050724796142575Q94.3503328125,33.04063579614258,92.5385328125,32.001758796142575L92.5383328125,32.00165779614258Q90.73073281250001,30.96503479614258,88.7159328125,31.501874796142577Q86.6986328125,32.03939179614258,85.65283281250001,33.83950479614258L65.0621328125,70.79773479614258L44.2253028125,58.847134796142576Q42.417322812500004,57.81103479614258,40.4026128125,58.34793479614258Q38.3851928125,58.88553479614258,37.3396138125,60.68523479614258Q36.2915628125,62.48923479614258,36.8341728125,64.50193479614258Q37.3760338125,66.51193479614258,39.1870828125,67.55153479614258L64.4134328125,82.01893479614259Q66.2206328125,83.05613479614257,68.23623281249999,82.51933479614257Q70.2546328125,81.98173479614258,71.2999328125,80.18093479614258L94.40193281250001,38.847604796142576Q95.4378328125,37.06453479614258,94.8936328125,35.050724796142575ZM66.36343281250001,71.54413479614257L86.9498328125,34.59302479614258C87.92883281249999,32.907927396142576,90.0962328125,32.33023579614258,91.7922328125,33.302941796142576C93.48843281250001,34.275454796142576,94.0714328125,36.430564796142576,93.0925328125,38.11578479614258L70.0027328125,79.42783479614258C69.0242328125,81.11333479614258,66.8554328125,81.69103479614259,65.1597328125,80.71773479614258L39.9338028125,66.25053479614257C38.2385630125,65.27753479614258,37.6578648125,63.123434796142575,38.6366138125,61.43883479614258C39.6153628125,59.75413479614258,41.7831128125,59.17643479614258,43.4790328125,60.14833479614258L64.3320328125,72.10823479614257L65.6333328125,72.85453479614259L66.36343281250001,71.54413479614257Z" fill-rule="evenodd" fill="#F8F8F8" fill-opacity="1"/></g></g></svg>