<?xml version="1.0" encoding="UTF-8"?>
<svg width="35px" height="94px" viewBox="0 0 35 94" version="1.1" xmlns="http://www.w3.org/2000/svg" xmlns:xlink="http://www.w3.org/1999/xlink">
    <title>group 56@3x</title>
    <g id="1920" stroke="none" stroke-width="1" fill="none" fill-rule="evenodd" opacity="0.300000012">
        <g id="Liquidation-Detail-1-2-1920" transform="translate(-908.000000, -798.000000)">
            <g id="group-backup" transform="translate(312.000000, 641.000000)">
                <g id="group-36" transform="translate(41.000000, 126.000000)">
                    <g id="group-56" transform="translate(555.000000, 32.000000)">
                        <path d="M3.20710678,86.2071068 L6.64644661,89.6464466 C6.84170876,89.8417088 6.84170876,90.1582912 6.64644661,90.3535534 C6.55267842,90.4473216 6.42550146,90.5 6.29289322,90.5 L-1.29289322,90.5 C-1.56903559,90.5 -1.79289322,90.2761424 -1.79289322,90 C-1.79289322,89.8673918 -1.7402148,89.7402148 -1.64644661,89.6464466 L1.79289322,86.2071068 C2.18341751,85.8165825 2.81658249,85.8165825 3.20710678,86.2071068 Z" id="t ribackup" fill="#EF814F" transform="translate(2.500000, 88.000000) rotate(-90.000000) translate(-2.500000, -88.000000) "></path>
                        <path d="M0,0 L26,0 C30.418278,-1.69980292e-15 34,3.581722 34,8 L34,80 C34,84.418278 30.418278,88 26,88 L5,88 L5,88" id="path" stroke="#EF814F" stroke-width="2"></path>
                    </g>
                </g>
            </g>
        </g>
    </g>
</svg>