<?xml version="1.0" encoding="UTF-8"?>
<svg width="20px" height="20px" viewBox="0 0 20 20" version="1.1" xmlns="http://www.w3.org/2000/svg" xmlns:xlink="http://www.w3.org/1999/xlink">
    <title>icon_20px_copy@2x</title>
    <g id="" stroke="none" stroke-width="1" fill="none" fill-rule="evenodd">
        <g id="Account" transform="translate(-892.000000, -217.000000)">
            <g id="group-19" transform="translate(460.000000, 97.000000)">
                <g id="icon_20px_copy" transform="translate(432.000000, 120.000000)">
                    <polygon id="path" points="0 0 20 0 20 20 0 20"></polygon>
                    <path d="M5.83333333,5 L5.83333333,2.5 C5.83333333,2.03976271 6.20642938,1.66666667 6.66666667,1.66666667 L16.6666667,1.66666667 C17.126904,1.66666667 17.5,2.03976271 17.5,2.5 L17.5,14.1666667 C17.5,14.626904 17.126904,15 16.6666667,15 L14.1666667,15 L14.1666667,17.5 C14.1666667,17.96 13.7916667,18.3333483 13.3275,18.3333483 L3.33916667,18.3333483 C3.11721122,18.3346639 2.90387766,18.2474809 2.74638219,18.0910802 C2.58888672,17.9346796 2.50021775,17.7219593 2.5,17.5 L2.5025,5.83333333 C2.5025,5.37333333 2.8775,5 3.34166667,5 L5.83333333,5 Z M4.16916667,6.66666667 L4.16666667,16.6666667 L12.5,16.6666667 L12.5,6.66666667 L4.16916667,6.66666667 Z M7.5,5 L14.1666667,5 L14.1666667,13.3333333 L15.8333333,13.3333333 L15.8333333,3.33333333 L7.5,3.33333333 L7.5,5 Z" id="shape" fill="#909399" fill-rule="nonzero"></path>
                </g>
            </g>
        </g>
    </g>
</svg>