<svg xmlns="http://www.w3.org/2000/svg" xmlns:xlink="http://www.w3.org/1999/xlink" fill="none" version="1.1" width="16" height="16" viewBox="0 0 16 16"><g style="mix-blend-mode:passthrough"><g style="mix-blend-mode:passthrough"></g><g><path d="M11.87993,5.75113L11.8177,5.64002C11.73555,5.5134,11.624310000000001,5.40825,11.49326,5.33336L9.3955,4.120037C9.26047,4.0417025,9.10718,4.000314868,8.95106,4.0000378287L8.82662,4.0000378287C8.67028,3.99856601,8.516539999999999,4.0400764,8.38218,4.120037L4.506662,6.364459999999999C4.3719850000000005,6.442349999999999,4.260111,6.55422,4.18222,6.6889L4.119999,6.80001C4.0416648,6.93505,4.000277199,7.0883400000000005,4,7.2444500000000005L4,9.80443C4.000277199,9.96054,4.0416648,10.11383,4.119999,10.24887L4.18222,10.35998C4.262126,10.493089999999999,4.373546,10.604510000000001,4.506662,10.68442L6.60442,11.87996C6.739459999999999,11.958300000000001,6.8927499999999995,11.999690000000001,7.0488599999999995,11.99996L7.173299999999999,11.99996C7.32965,12.00143,7.48339,11.95992,7.6177399999999995,11.87996L11.49326,9.635539999999999C11.627939999999999,9.557649999999999,11.73981,9.44578,11.8177,9.3111L11.87993,9.19999C11.95826,9.06495,11.999649999999999,8.911660000000001,11.99992,8.75555L11.99992,6.19557C11.999649999999999,6.03946,11.95826,5.88617,11.87993,5.75113ZM8.82662,4.888918L8.95106,4.888918L10.666599999999999,5.86669L7.111079999999999,7.92445L5.3333200000000005,6.91112L8.82662,4.888918ZM11.04882,8.88888L7.55552,10.888860000000001L7.55552,8.69777L11.11104,6.6355699999999995L11.11104,8.75555L11.04882,8.88888Z" fill="#909399" fill-opacity="1"/></g></g></svg>