<?xml version="1.0" standalone="no"?><!DOCTYPE svg PUBLIC "-//W3C//DTD SVG 1.1//EN" "http://www.w3.org/Graphics/SVG/1.1/DTD/svg11.dtd"><svg t="1652946112877" class="icon" viewBox="0 0 1024 1024" version="1.1" xmlns="http://www.w3.org/2000/svg" p-id="6744" xmlns:xlink="http://www.w3.org/1999/xlink" width="200" height="200"><defs><style type="text/css"></style></defs><path d="M122.88 532.48m163.84 0l409.6 0q163.84 0 163.84 163.84l0 163.84q0 163.84-163.84 163.84l-409.6 0q-163.84 0-163.84-163.84l0-163.84q0-163.84 163.84-163.84Z" fill="#FFFFFF" opacity=".7" p-id="6745"></path><path d="M163.84 245.76m163.84 0l327.68 0q163.84 0 163.84 163.84l0 409.6q0 163.84-163.84 163.84l-327.68 0q-163.84 0-163.84-163.84l0-409.6q0-163.84 163.84-163.84Z" fill="#FFFFFF" p-id="6746"></path><path d="M245.76 368.64m122.88 0l245.76 0q122.88 0 122.88 122.88l0 0q0 122.88-122.88 122.88l-245.76 0q-122.88 0-122.88-122.88l0 0q0-122.88 122.88-122.88Z" fill="#381505" p-id="6747"></path><path d="M368.64 491.52m-40.96 0a40.96 40.96 0 1 0 81.92 0 40.96 40.96 0 1 0-81.92 0Z" fill="#FFFFFF" p-id="6748"></path><path d="M614.4 491.52m-40.96 0a40.96 40.96 0 1 0 81.92 0 40.96 40.96 0 1 0-81.92 0Z" fill="#FFFFFF" p-id="6749"></path><path d="M313.05728 471.81824h364.87168v-44.93312H313.05728z" fill="#381505" p-id="6750"></path></svg>