<?xml version="1.0" standalone="no"?><!DOCTYPE svg PUBLIC "-//W3C//DTD SVG 1.1//EN" "http://www.w3.org/Graphics/SVG/1.1/DTD/svg11.dtd"><svg t="1652953327130" class="icon" viewBox="0 0 1024 1024" version="1.1" xmlns="http://www.w3.org/2000/svg" p-id="8783" xmlns:xlink="http://www.w3.org/1999/xlink" width="200" height="200"><defs><style type="text/css"></style></defs><path d="M435.52 511.552L512 435.04l76.48 76.48L512 588.128l-76.48-76.544z m243.488 0l76.48-76.512L832 511.52l-76.48 76.512-76.512-76.48zM192 511.552l76.48-76.512 76.512 76.48-76.48 76.512L192 511.552z m120.832-120.768L511.648 192l76.48 76.48-198.816 198.816-76.48-76.48z" p-id="8784"></path><path d="M634.688 467.296L435.904 268.48 512.384 192l198.784 198.784-76.48 76.48z m-245.344 89.568l198.784 198.784-76.48 76.48-198.816-198.752 76.48-76.512z" p-id="8785"></path><path d="M711.264 633.376l-198.784 198.784-76.48-76.48 198.784-198.816z" p-id="8786"></path></svg>