<?xml version="1.0" standalone="no"?><!DOCTYPE svg PUBLIC "-//W3C//DTD SVG 1.1//EN" "http://www.w3.org/Graphics/SVG/1.1/DTD/svg11.dtd"><svg t="1652945894651" class="icon" viewBox="0 0 1024 1024" version="1.1" xmlns="http://www.w3.org/2000/svg" p-id="6473" xmlns:xlink="http://www.w3.org/1999/xlink" width="200" height="200"><defs><style type="text/css"></style></defs><path d="M785.152 85.333333H238.848C154.24 85.333333 85.546667 154.154667 85.333333 239.274667v545.450666c0.213333 85.12 68.906667 153.984 153.514667 153.941334h546.304c84.608 0 153.301333-68.821333 153.514667-153.941334V239.274667C938.453333 154.154667 869.76 85.290667 785.152 85.333333z m83.754667 699.392a83.968 83.968 0 0 1-83.754667 84.010667H238.848c-46.165333 0-83.626667-37.546667-83.754667-84.010667V239.274667a83.968 83.968 0 0 1 83.754667-84.010667h546.304c46.165333 0 83.626667 37.546667 83.754667 84.010667v545.450666zM428.373333 320.853333H264.533333a34.730667 34.730667 0 0 0-30.08 17.493334 35.157333 35.157333 0 0 0 0 34.986666c6.229333 10.794667 17.706667 17.493333 30.122667 17.493334h163.84c12.373333 0 23.893333-6.698667 30.08-17.493334a35.157333 35.157333 0 0 0 0-34.986666 34.730667 34.730667 0 0 0-30.122667-17.493334z m313.856 255.018667h-163.797333a34.730667 34.730667 0 0 0-30.464 17.365333 35.157333 35.157333 0 0 0 0 35.2c6.314667 10.88 17.92 17.493333 30.464 17.365334h163.84c19.2 0 34.773333-15.658667 34.773333-34.986667a34.858667 34.858667 0 0 0-34.773333-34.986667h-0.042667z m0 132.096h-163.797333a34.730667 34.730667 0 0 0-30.464 17.365333 35.157333 35.157333 0 0 0 0 35.2c6.314667 10.88 17.92 17.493333 30.464 17.365334h163.84c12.373333 0 23.893333-6.656 30.08-17.493334a35.157333 35.157333 0 0 0 0-34.986666 34.730667 34.730667 0 0 0-30.08-17.493334h-0.042667z m-171.818666-317.184h49.92v50.048a34.986667 34.986667 0 0 0 34.858666 35.072 34.986667 34.986667 0 0 0 34.858667-35.072V390.741333h49.92c19.2 0 34.773333-15.658667 34.773333-34.986666a34.858667 34.858667 0 0 0-34.773333-34.986667h-49.92V270.848a34.986667 34.986667 0 0 0-34.858667-35.114667 34.986667 34.986667 0 0 0-34.858666 35.114667v50.005333h-49.92a34.730667 34.730667 0 0 0-30.805334 17.237334 35.157333 35.157333 0 0 0 0 35.413333c6.4 10.965333 18.218667 17.578667 30.805334 17.28z m-136.832 194.133333a34.816 34.816 0 0 0-49.322667 0L341.333333 628.010667l-42.922666-43.093334a34.688 34.688 0 0 0-49.28-0.042666c-13.610667 13.653333-13.653333 35.84-0.085334 49.493333l42.922667 43.093333-42.922667 43.050667a35.157333 35.157333 0 0 0 0.298667 49.322667c13.525333 13.568 35.413333 13.653333 49.066667 0.128l42.88-43.093334 42.922666 43.093334a34.688 34.688 0 0 0 58.538667-15.488 35.157333 35.157333 0 0 0-9.216-33.962667l-42.922667-43.093333 42.922667-43.008a34.986667 34.986667 0 0 0 0-49.493334z" p-id="6474"></path></svg>