<?xml version="1.0" standalone="no"?><!DOCTYPE svg PUBLIC "-//W3C//DTD SVG 1.1//EN" "http://www.w3.org/Graphics/SVG/1.1/DTD/svg11.dtd"><svg t="1652864896724" class="icon" viewBox="0 0 1024 1024" version="1.1" xmlns="http://www.w3.org/2000/svg" p-id="3056" xmlns:xlink="http://www.w3.org/1999/xlink" width="200" height="200"><defs><style type="text/css"></style></defs><path d="M298.688 256V128c0-23.552 19.072-42.688 42.624-42.688h512c23.616 0 42.688 19.136 42.688 42.688v597.312a42.688 42.688 0 0 1-42.688 42.688h-128v128c0 23.552-19.2 42.688-42.944 42.688h-511.36A42.688 42.688 0 0 1 128 896l0.128-597.312c0-23.552 19.2-42.688 42.944-42.688h127.616zM213.44 341.312l-0.128 512H640v-512H213.44zM384 256h341.312v426.688h85.376v-512H384V256z" p-id="3057"></path></svg>