<?xml version="1.0" standalone="no"?><!DOCTYPE svg PUBLIC "-//W3C//DTD SVG 1.1//EN" "http://www.w3.org/Graphics/SVG/1.1/DTD/svg11.dtd"><svg t="1652946743391" class="icon" viewBox="0 0 1024 1024" version="1.1" xmlns="http://www.w3.org/2000/svg" p-id="7832" xmlns:xlink="http://www.w3.org/1999/xlink" width="200" height="200"><defs><style type="text/css"></style></defs><path d="M512 165.312c79.616 0 153.984 22.656 216.896 61.888l47.808-47.808a48 48 0 0 1 72.576 62.528l-4.672 5.376-40.32 40.32A410.688 410.688 0 1 1 512 165.312z m0 96a314.688 314.688 0 1 0 0 629.376 314.688 314.688 0 0 0 0-629.376zM661.312 37.312a48 48 0 0 1 6.528 95.552l-6.528 0.448H362.688A48 48 0 0 1 356.16 37.76l6.528-0.448h298.624z" p-id="7833"></path><path d="M512 336a48 48 0 0 1 47.552 41.472L560 384v192a48 48 0 0 1-95.552 6.528L464 576V384A48 48 0 0 1 512 336z" p-id="7834"></path></svg>