<?xml version="1.0" encoding="UTF-8"?>
<svg width="100px" height="100px" viewBox="0 0 100 100" version="1.1" xmlns="http://www.w3.org/2000/svg" xmlns:xlink="http://www.w3.org/1999/xlink">
    <title>pools</title>
    <g id="page-1" stroke="none" stroke-width="1" fill="none" fill-rule="evenodd">
        <g id="Pools---no-pools-yet" transform="translate(-798.000000, -1108.000000)">
            <g id="pools" transform="translate(798.000000, 1108.000000)">
                <circle id="oven" fill="#FFF7F5" cx="50" cy="50" r="50"></circle>
                <g id="group-96" transform="translate(19.000000, 17.000000)">
                    <g id="group-94" transform="translate(-0.000000, -0.000000)">
                        <path d="M5.02392645,41.6961961 L9.96040378,61.4158184 L54.0123854,61.4158184 L58.5582881,45 C55.1344839,47.9601472 50.0571588,49.2016488 43.3263126,48.7245048 C33.2300433,48.0087888 29.9277063,39.9579135 21.3171059,40.4921818 C15.5767057,40.8483607 10.1456459,41.2496988 5.02392645,41.6961961 Z" id="path-12" fill="#FFFFFF"></path>
                        <path d="M62.3839281,22.9977541 C61.3027837,22.7790255 60.2466369,23.4789571 60.0279082,24.5601016 L53.2160734,58.3443023 C53.0410905,59.2067181 52.1599266,59.9878918 51.3600047,59.9878918 L12.6262873,59.9878918 C11.8138666,59.9878918 10.9452015,59.2192169 10.7702186,58.3443023 L3.95838375,24.5663509 C3.73965512,23.4852065 2.68350825,22.7852749 1.60236381,23.0040035 C0.521219371,23.2227321 -0.178712254,24.278879 0.0400164332,25.3600234 L6.85810056,59.1442242 C7.12057493,60.456596 7.8517535,61.6814764 8.91414981,62.5813886 C9.99529425,63.4937994 11.3139154,64 12.6325367,64 L51.3600047,64 C54.0534916,64 56.5907439,61.8689581 57.1344408,59.1442242 L63.9462756,25.3600234 C64.1712536,24.2726296 63.4713219,23.2164827 62.3839281,22.9977541 Z" id="path" fill="#FFDBD3" fill-rule="nonzero"></path>
                        <path d="M31.993146,35.5277805 C36.7426822,35.5277805 41.2109958,33.6779611 44.5669181,30.3282882 C47.9290897,26.972366 49.7789091,22.5103017 49.7789091,17.7670149 C49.7789091,13.0237281 47.9290897,8.56166387 44.5669181,5.20574162 C41.2109958,1.84981937 36.7426822,-1.95399252e-13 31.993146,-1.95399252e-13 C27.2436098,-1.95399252e-13 22.7752962,1.84981937 19.4193739,5.19949225 C16.0572022,8.5554145 14.2073829,13.0174787 14.2073829,17.7607656 C14.2073829,22.5040524 16.0572022,26.9661166 19.4193739,30.3220389 C22.7752961,33.6779611 27.2436098,35.5277805 31.993146,35.5277805 Z" id="path" fill="#FFDBD3" fill-rule="nonzero"></path>
                        <path d="M22.2440981,8.03046575 C24.8438442,5.43071969 28.3122554,3.99960944 31.993146,3.99960944 C35.6740366,3.99960944 39.1424478,5.43071969 41.7421939,8.03046575 C44.3481894,10.6302119 45.7792997,14.0861244 45.7792997,17.7607656 C45.7792997,21.4354067 44.3481894,24.8975686 41.7421939,27.4973147 C39.1361984,30.0970608 35.6740365,31.5281711 31.993146,31.5281711 C28.3122555,31.5281711 24.8438442,30.0970608 22.2440981,27.4973147 C19.6381026,24.8975686 18.2069923,21.4416561 18.2069923,17.7670149 C18.2069923,14.0861244 19.6381026,10.6302119 22.2440981,8.03046575 Z" id="path" fill="#FFFFFF" fill-rule="nonzero"></path>
                        <path d="M11.451402,43.3020213 C17.0696034,40.4398008 23.831443,41.2459721 30.4807937,45.5705498 C34.4679043,48.1640465 39.1486972,49.8138854 43.6545072,50.2075969 C44.3606882,50.2700908 45.0543705,50.3013378 45.7293046,50.3013378 C49.3976963,50.3013378 52.5286406,49.3951763 54.6909294,47.6765941 C55.5533452,46.9891612 55.6970812,45.7330339 55.0096483,44.8643687 C54.3222154,44.0019529 53.0660881,43.8582169 52.1974229,44.5456498 C48.7290116,47.3078801 40.0486094,47.0266575 32.6618307,42.2208769 C28.6559719,39.6148814 24.5813698,38.0962797 20.5567628,37.7150669 C16.6758918,37.3463529 13.0012506,38.0275364 9.63282962,39.7398691 C8.65167543,40.2398203 8.25796387,41.4459525 8.75791506,42.4271068 C9.26411562,43.4145103 10.4639984,43.8019725 11.451402,43.3020213 L11.451402,43.3020213 Z" id="path" fill="#FFDBD3" fill-rule="nonzero"></path>
                        <path d="M27.2811061,17.6545259 C28.1997664,18.3482082 29.3371553,18.8231618 30.5432876,19.323113 C30.7620162,19.4106044 30.9869942,19.5043453 31.2119722,19.6043355 C31.4244515,19.6918269 31.6369307,19.7855678 31.84941,19.8730593 C32.7930679,20.2667708 33.6804812,20.6354848 34.2241781,21.0354458 C34.6428872,21.3479153 34.6428872,21.50415 34.6428872,21.6478859 C34.6428872,22.6727859 33.4305056,23.5352016 31.993146,23.5352016 C30.7182705,23.5352016 29.8871017,22.9102626 29.555884,22.3728151 C28.9809401,21.4291573 27.7498104,21.1354359 26.8061526,21.7103799 C25.8624947,22.2853238 25.5687734,23.5164535 26.1437172,24.4601113 C26.9748861,25.8224783 28.3685,26.8098818 29.9870919,27.2598379 L29.9870919,28.15975 C29.9870919,29.265892 30.8807546,30.1595548 31.9868966,30.1595548 C33.0930386,30.1595548 33.9867013,29.265892 33.9867013,28.15975 L33.9867013,27.2598379 C34.9366086,26.9973636 35.8177725,26.5474075 36.5552005,25.9287179 C37.8738217,24.8225759 38.6362472,23.2664779 38.6362472,21.6478859 C38.6362472,20.1105361 37.9550637,18.8294112 36.6051956,17.8232594 C35.6615377,17.1233278 34.4991513,16.6421248 33.3742611,16.1734206 C33.1742806,16.0921785 32.9680508,16.0046871 32.7680703,15.9171956 C32.5305935,15.8172053 32.2993661,15.7234645 32.0743881,15.6297237 C30.0183389,14.7735573 29.3371554,14.4048433 29.3371554,13.8736451 C29.3371554,12.8487452 30.549537,11.9863294 31.9868966,11.9863294 C33.2617721,11.9863294 34.0929409,12.6112684 34.4241586,13.1487159 C34.9991024,14.0923738 36.2302322,14.3860951 37.1738901,13.8111513 C38.1175479,13.2362074 38.4112692,12.0050776 37.8363254,11.0614198 C37.0051566,9.69905288 35.6115426,8.71164931 33.9929507,8.26169319 L33.9929507,7.36178106 C33.9929507,6.25563906 33.0992879,5.36197638 31.993146,5.36197638 C30.8870041,5.36197638 29.9933413,6.25563913 29.9933413,7.36178106 L29.9933413,8.26169319 C29.0434341,8.52416756 28.1622701,8.97412363 27.4248421,9.59281319 C26.1062209,10.6989552 25.3437953,12.2550532 25.3437953,13.8736451 C25.3437953,15.410995 25.9937318,16.6796211 27.2811061,17.6545259 L27.2811061,17.6545259 Z" id="path" fill="#FFDBD3" fill-rule="nonzero"></path>
                    </g>
                </g>
            </g>
        </g>
    </g>
</svg>