<?xml version="1.0" standalone="no"?><!DOCTYPE svg PUBLIC "-//W3C//DTD SVG 1.1//EN" "http://www.w3.org/Graphics/SVG/1.1/DTD/svg11.dtd"><svg t="1652944213150" class="icon" viewBox="0 0 1024 1024" version="1.1" xmlns="http://www.w3.org/2000/svg" p-id="4159" xmlns:xlink="http://www.w3.org/1999/xlink" width="200" height="200"><defs><style type="text/css"></style></defs><path d="M554.666667 96a202.666667 202.666667 0 0 1 202.453333 193.408L757.333333 298.666667v293.034666h-64V298.666667a138.666667 138.666667 0 0 0-130.816-138.453334L554.666667 160H298.666667a138.666667 138.666667 0 0 0-138.453334 130.816L160 298.666667v426.666666a138.666667 138.666667 0 0 0 130.816 138.453334L298.666667 864h426.666666v64H298.666667a202.666667 202.666667 0 0 1-202.453334-193.408L96 725.333333V298.666667a202.666667 202.666667 0 0 1 193.408-202.453334L298.666667 96h256z" p-id="4160"></path><path d="M725.333333 522.666667a202.666667 202.666667 0 1 0 0 405.333333 202.666667 202.666667 0 0 0 0-405.333333z m0 64a138.666667 138.666667 0 1 1 0 277.333333 138.666667 138.666667 0 0 1 0-277.333333z" p-id="4161"></path><path d="M704 576H768V682.666667h106.666667v64h-170.666667z" p-id="4162"></path><path d="M256 341.333333m32 0l277.333333 0q32 0 32 32l0 0q0 32-32 32l-277.333333 0q-32 0-32-32l0 0q0-32 32-32Z" p-id="4163"></path><path d="M256 512m32 0l149.333333 0q32 0 32 32l0 0q0 32-32 32l-149.333333 0q-32 0-32-32l0 0q0-32 32-32Z" p-id="4164"></path></svg>