<?xml version="1.0" standalone="no"?><!DOCTYPE svg PUBLIC "-//W3C//DTD SVG 1.1//EN" "http://www.w3.org/Graphics/SVG/1.1/DTD/svg11.dtd"><svg t="1652865530159" class="icon" viewBox="0 0 1024 1024" version="1.1" xmlns="http://www.w3.org/2000/svg" p-id="3325" xmlns:xlink="http://www.w3.org/1999/xlink" width="200" height="200"><defs><style type="text/css"></style></defs><path d="M512 512m-512 0a512 512 0 1 0 1024 0 512 512 0 1 0-1024 0Z" fill="#EFEFEF" p-id="3326"></path><path d="M704 481.568l-84.448-14.4v-54.208c0-13.44-11.104-24.32-24.832-24.32h-165.44a24.576 24.576 0 0 0-24.832 24.32v46.496L704 510.688v125.728c0 19.264-10.72 36.96-27.968 46.208l-154.88 83.008a20.096 20.096 0 0 1-18.912 0l-154.336-82.976A52.512 52.512 0 0 1 320 636.448v-92.544l84.448 14.4v45.184c0 5.088 2.88 9.728 7.296 12.032l96.896 54.112c1.888 1.088 4.224 1.088 6.112 0l97.312-54.016a13.664 13.664 0 0 0 7.488-12.16v-37.632L320 514.72v-105.056c0-48.544 35.232-91.2 83.776-101.376l-0.032-1.024V288h72.032v17.888h72.448V288h72.032v20.288c48.512 10.208 83.744 52.8 83.744 101.376v71.904z" fill="#C4C4C4" p-id="3327"></path></svg>