<?xml version="1.0" standalone="no"?><!DOCTYPE svg PUBLIC "-//W3C//DTD SVG 1.1//EN" "http://www.w3.org/Graphics/SVG/1.1/DTD/svg11.dtd"><svg t="1652951868475" class="icon" viewBox="0 0 1024 1024" version="1.1" xmlns="http://www.w3.org/2000/svg" p-id="8238" xmlns:xlink="http://www.w3.org/1999/xlink" width="200" height="200"><defs><style type="text/css"></style></defs><path d="M917.839076 414.776889V881.777778c0 78.506667-62.293333 142.222222-139.150223 142.222222H245.412409c-76.8 0-139.150222-63.715556-139.150222-142.222222V414.776889a47.047111 47.047111 0 0 1 44.600889-49.208889 46.819556 46.819556 0 0 1 48.128 49.208889V881.777778c0 26.168889 20.764444 47.445333 46.421333 47.445333h533.276444c25.6 0 46.421333-21.276444 46.421334-47.445333V414.776889c0-26.168889 20.707556-47.331556 46.364444-47.331556 25.6 0 46.364444 21.162667 46.364445 47.331556z m-231.879112 0v336.668444a47.047111 47.047111 0 0 1-44.544 49.208889 46.819556 46.819556 0 0 1-48.184888-49.208889V414.72c0-26.168889 20.707556-47.331556 46.307555-47.331556 25.713778 0 46.421333 21.162667 46.421333 47.331556z m-255.089777 0v336.668444a47.047111 47.047111 0 0 1-44.600889 49.208889 46.819556 46.819556 0 0 1-48.128-49.208889V414.72c0-26.168889 20.707556-47.331556 46.421333-47.331556 25.6 0 46.307556 21.162667 46.307556 47.331556zM0.050631 238.933333a47.047111 47.047111 0 0 1 48.128-49.208889h150.755556v-71.111111C198.991076 53.134222 250.930631 0 314.98752 0h394.126222c64 0 115.996444 53.020444 115.996445 118.556444v71.111112h150.755555c25.6-1.024 47.160889 19.342222 48.128 45.511111a47.047111 47.047111 0 0 1-48.128 49.265777H48.23552a46.819556 46.819556 0 0 1-48.128-45.511111z m314.88-144.099555a23.438222 23.438222 0 0 0-23.267555 23.608889v71.281777h440.661333v-71.111111a23.438222 23.438222 0 0 0-23.096889-23.779555H314.98752z" p-id="8239"></path></svg>