<?xml version="1.0" standalone="no"?><!DOCTYPE svg PUBLIC "-//W3C//DTD SVG 1.1//EN" "http://www.w3.org/Graphics/SVG/1.1/DTD/svg11.dtd"><svg t="1652944925931" class="icon" viewBox="0 0 1024 1024" version="1.1" xmlns="http://www.w3.org/2000/svg" p-id="5521" xmlns:xlink="http://www.w3.org/1999/xlink" width="200" height="200"><defs><style type="text/css"></style></defs><path d="M0 512c0 282.7648 229.2352 512 512 512s512-229.2352 512-512S794.7648 0 512 0 0 229.2352 0 512z" fill="#FF9463" opacity=".04" p-id="5522"></path><path d="M518.4 494.7328L742.4 326.4c-7.1552-3.6608-15.2064-6.4-23.2448-6.4H316.7616a47.616 47.616 0 0 0-22.3616 5.4912L518.4 494.72z" fill="#FF7F45" p-id="5523"></path><path d="M275.9296 345.6l234.4448 177.856c2.688 1.792 5.3504 2.688 8.0256 2.688 2.6752 0 5.3504-0.896 8.0256-2.688L761.7664 346.496c3.5584 7.1424 6.2336 15.1936 6.2336 24.128l0.0128 145.7024A127.4112 127.4112 0 0 0 704 499.2c-70.6944 0-128 57.3056-128 128 0 28.8256 9.5232 55.424 25.6 76.8H317.824C291.0848 704 268.8 681.6512 268.8 654.848V370.624c0-8.9344 2.6752-17.8688 7.1296-25.024z" fill="#FF7F45" p-id="5524"></path><path d="M692.928 665.1648a9.7792 9.7792 0 0 1-6.9632-2.9056l-39.3984-39.8336a10.048 10.048 0 0 1 0-14.08 9.7664 9.7664 0 0 1 13.9264 0l32.4352 32.7936 61.952-62.6432a9.7536 9.7536 0 0 1 13.9264 0c3.84 3.8784 3.84 10.176 0 14.0672l-68.9152 69.696a9.792 9.792 0 0 1-6.9632 2.9056z" fill="#FF7F45" p-id="5525"></path></svg>