<?xml version="1.0" standalone="no"?><!DOCTYPE svg PUBLIC "-//W3C//DTD SVG 1.1//EN" "http://www.w3.org/Graphics/SVG/1.1/DTD/svg11.dtd"><svg t="1652942614391" class="icon" viewBox="0 0 1024 1024" version="1.1" xmlns="http://www.w3.org/2000/svg" p-id="3880" xmlns:xlink="http://www.w3.org/1999/xlink" width="200" height="200"><defs><style type="text/css"></style></defs><path d="M512 512m-512 0a512 512 0 1 0 1024 0 512 512 0 1 0-1024 0Z" fill="#FFF7F5" p-id="3881"></path><path d="M327.68 174.08h368.64c56.55552 0 102.4 45.84448 102.4 102.4v409.57952l-95.31392 93.0816a102.4 102.4 0 0 0-2.05824 2.06848L605.184 880.64H327.68c-56.55552 0-102.4-45.84448-102.4-102.4V276.48c0-56.55552 45.84448-102.4 102.4-102.4z" fill="#FFFFFF" p-id="3882"></path><path d="M769.18784 190.58688a10.24 10.24 0 1 1-13.25056 15.60576A91.74016 91.74016 0 0 0 696.32 184.32a10.24 10.24 0 0 1 0-20.48c27.05408 0 52.66432 9.58464 72.86784 26.74688zM808.96 321.4336a10.24 10.24 0 1 1-20.48 0v-45.29152a92.2624 92.2624 0 0 0-3.19488-23.83872 10.24 10.24 0 1 1 19.7632-5.35552c2.56 9.4208 3.88096 19.18976 3.91168 29.15328v45.33248z m0 133.12a10.24 10.24 0 1 1-20.48 0v-71.68a10.24 10.24 0 0 1 20.48 0v71.68z m0 133.12a10.24 10.24 0 1 1-20.48 0v-71.68a10.24 10.24 0 0 1 20.48 0v71.68z m-27.94496 129.97632a10.24 10.24 0 1 1-14.30528-14.65344l24.85248-24.2688-3.08224 7.3216V649.1136a10.24 10.24 0 0 1 20.48 0v36.93568a10.24 10.24 0 0 1-3.08224 7.3216l-24.86272 24.2688z m-94.3616 93.47072a10.24 10.24 0 1 1-14.71488-14.2336l23.17312-23.95136 27.648-27.01312a10.24 10.24 0 0 1 14.30528 14.65344l-26.51136 25.88672-1.8432 1.86368-22.05696 22.79424zM578.67264 890.88a10.24 10.24 0 0 1 0-20.48H605.184l-7.36256 3.1232 31.39584-32.4608a10.24 10.24 0 1 1 14.72512 14.2336l-31.39584 32.4608A10.24 10.24 0 0 1 605.184 890.88h-26.5216z m-133.12 0a10.24 10.24 0 0 1 0-20.48h71.68a10.24 10.24 0 1 1 0 20.48h-71.68z m-134.59456-1.2288a10.24 10.24 0 1 1 3.0208-20.26496c4.5056 0.67584 9.08288 1.01376 13.70112 1.01376h56.4224a10.24 10.24 0 1 1 0 20.48H327.68c-5.632 0-11.2128-0.4096-16.72192-1.2288z m-95.20128-98.6112a10.24 10.24 0 1 1 20.35712-2.304 91.89376 91.89376 0 0 0 28.52864 56.7296 10.24 10.24 0 0 1-14.01856 14.94016 112.37376 112.37376 0 0 1-34.8672-69.36576zM215.04 656.5888a10.24 10.24 0 0 1 20.48 0v71.68a10.24 10.24 0 1 1-20.48 0v-71.68z m0-133.12a10.24 10.24 0 0 1 20.48 0v71.68a10.24 10.24 0 1 1-20.48 0v-71.68z m0-133.12a10.24 10.24 0 0 1 20.48 0v71.68a10.24 10.24 0 1 1-20.48 0v-71.68z m1.96608-134.95296a10.24 10.24 0 0 1 20.13184 3.81952A92.71296 92.71296 0 0 0 235.52 276.48v52.4288a10.24 10.24 0 1 1-20.48 0V276.48c0-7.12704 0.6656-14.17216 1.96608-21.08416z m102.33856-91.24864a10.24 10.24 0 0 1 1.49504 20.41856 91.8016 91.8016 0 0 0-57.82528 26.24512 10.24 10.24 0 0 1-14.36672-14.592 112.2816 112.2816 0 0 1 70.69696-32.07168zM453.33504 163.84a10.24 10.24 0 0 1 0 20.48h-71.68a10.24 10.24 0 1 1 0-20.48h71.68z m133.12 0a10.24 10.24 0 0 1 0 20.48h-71.68a10.24 10.24 0 1 1 0-20.48h71.68zM696.32 163.84a10.24 10.24 0 0 1 0 20.48h-48.42496a10.24 10.24 0 1 1 0-20.48H696.32zM694.8352 341.12512A15.36 15.36 0 0 1 696.32 371.77344l-1.4848 0.07168H539.00288a15.36 15.36 0 0 1-1.47456-30.65856l1.47456-0.06144h155.83232zM626.21696 444.98944a15.36 15.36 0 0 1 1.4848 30.64832l-1.4848 0.07168h-87.21408a15.36 15.36 0 0 1-1.47456-30.64832l1.47456-0.07168h87.21408zM694.8352 600.03328A15.36 15.36 0 0 1 696.32 630.6816l-1.4848 0.07168H344.9856a15.36 15.36 0 0 1-1.4848-30.64832l1.4848-0.07168h349.85984zM504.70912 720.73216a15.36 15.36 0 0 1 1.47456 30.64832l-1.47456 0.07168h-159.744a15.36 15.36 0 0 1-1.47456-30.64832l1.4848-0.07168h159.73376z" fill="#FFDBD3" p-id="3883"></path><path d="M798.72 675.2256v20.48h-91.136a92.16 92.16 0 0 0-92.11904 89.43616l-0.04096 2.72384V880.64h-20.48v-92.7744c0-61.22496 48.8448-111.04256 109.69088-112.60928l2.94912-0.03072H798.72z" fill="#FFDBD3" p-id="3884"></path><path d="M437.06368 317.87008a46.08 46.08 0 0 1 46.0288 43.90912l0.0512 2.17088v36.27008h-28.12928l28.84608 4.66944v48.0256a35.84 35.84 0 0 1-17.7152 30.9248l-1.8432 1.01376-54.19008 27.60704a25.6 25.6 0 0 1-21.42208 0.82944l-1.85344-0.84992-53.92384-27.58656a35.84 35.84 0 0 1-19.456-29.7984l-0.06144-2.10944v-41.2672h20.18304l-20.1728-3.2768v-44.4416a46.08 46.08 0 0 1 43.90912-46.03904l2.16064-0.0512h77.58848z m-92.94848 95.50848v39.56736a5.12 5.12 0 0 0 1.98656 4.0448l0.80896 0.512 51.57888 26.38848 51.85536-26.4192a5.12 5.12 0 0 0 2.7136-3.60448l0.08192-0.95232v-21.89312L344.10496 413.3888z m92.94848-64.78848h-77.58848a15.36 15.36 0 0 0-15.28832 13.88544l-0.07168 1.47456v18.29888l108.29824 17.54112 0.01024-35.84a15.36 15.36 0 0 0-13.8752-15.28832l-1.4848-0.07168z" fill="#FFDBD3" p-id="3885"></path><path d="M379.3408 307.85536v15.13472h-30.72v-15.13472zM446.04416 307.85536v15.13472h-30.72v-15.13472z" fill="#FFDBD3" p-id="3886"></path><path d="M451.92192 389.3248l32.6144 5.18144-1.60768 10.10688-32.6144-5.1712zM313.41568 408.51456l32.6144 5.1712-1.59744 10.11712-32.6144-5.1712z" fill="#FFFFFF" p-id="3887"></path></svg>