<?xml version="1.0" standalone="no"?><!DOCTYPE svg PUBLIC "-//W3C//DTD SVG 1.1//EN" "http://www.w3.org/Graphics/SVG/1.1/DTD/svg11.dtd"><svg t="1652944299145" class="icon" viewBox="0 0 1024 1024" version="1.1" xmlns="http://www.w3.org/2000/svg" p-id="4571" xmlns:xlink="http://www.w3.org/1999/xlink" width="200" height="200"><defs><style type="text/css"></style></defs><path d="M257.28 438.613333a259.114667 259.114667 0 0 1 162.304 56.832h101.461333c50.517333 0 95.872 21.973333 127.104 56.832h119.168c73.130667 0 176.810667 38.485333 171.093334 108.032-5.504 7.296-11.264 14.464-17.194667 21.418667-90.368 106.026667-227.584 173.653333-381.226667 173.653333-105.685333 0-195.114667-22.826667-267.52-62.805333a37.802667 37.802667 0 0 1-35.584 24.917333H123.221333A37.888 37.888 0 0 1 85.333333 779.605333V438.613333c0-20.906667 16.981333-37.888 37.888-37.888h96.213334c20.906667 0 37.888 16.938667 37.888 37.888zM256 704.682667v7.68c68.608 47.701333 180.053333 85.248 287.914667 85.248 114.773333 0 225.109333-61.781333 302.933333-136.576l5.034667-5.034667c2.986667-2.432 1.28-6.826667-5.077334-13.269333-18.048-14.037333-49.578667-22.613333-72.448-24.192h-102.186666c2.730667 12.202667 4.266667 34.389333 4.266666 47.402666v10.154667H332.416V628.053333h282.88l-4.650667-22.528c-14.933333-30.890667-49.834667-51.413333-84.309333-53.632l-6.272-0.213333H392.448a191.36 191.36 0 0 0-136.362667-56.832L256 704.682667z m-50.346667-247.125334H137.941333v303.104h67.626667v-303.104z" p-id="4572"></path><path d="M426.666667 362.837333m28.416 0l327.168 0q28.416 0 28.416 28.416l0 0q0 28.416-28.416 28.416l-327.168 0q-28.416 0-28.416-28.416l0 0q0-28.416 28.416-28.416Z" p-id="4573"></path><path d="M426.666667 211.285333m28.416 0l327.168 0q28.416 0 28.416 28.416l0 0q0 28.416-28.416 28.416l-327.168 0q-28.416 0-28.416-28.416l0 0q0-28.416 28.416-28.416Z" p-id="4574"></path></svg>