<?xml version="1.0" standalone="no"?><!DOCTYPE svg PUBLIC "-//W3C//DTD SVG 1.1//EN" "http://www.w3.org/Graphics/SVG/1.1/DTD/svg11.dtd"><svg t="1652951969256" class="icon" viewBox="0 0 1024 1024" version="1.1" xmlns="http://www.w3.org/2000/svg" p-id="8510" xmlns:xlink="http://www.w3.org/1999/xlink" width="200" height="200"><defs><style type="text/css"></style></defs><path d="M153.6 153.6m32 0l0 0q32 0 32 32l0 686.9504q0 32-32 32l0 0q-32 0-32-32l0-686.9504q0-32 32-32Z" p-id="8511"></path><path d="M174.9504 194.304c10.5984 3.7888 45.9264 2.3552 105.984-4.4032C371.0464 179.7632 390.2976 170.1888 460.4928 162.2528 489.5744 158.9248 518.7072 156.6208 547.8912 155.136a51.2 51.2 0 0 1 53.7088 51.0976v304.0768a51.2 51.2 0 0 1-48.7424 51.1488c-26.112 1.2288-56.2688 3.84-90.3168 7.68-86.4256 9.8304-114.8416 20.48-172.1856 26.9312-38.2464 4.3008-76.6976 6.0416-115.4048 5.3248V194.304z" p-id="8512"></path><path d="M838.4512 234.6496a24.8832 24.8832 0 0 1 23.7056 33.9968l-2.2528 4.4032c-51.0464 79.36-123.648 124.928-122.88 152.3712 0.7168 26.2144 102.7072 120.832 120.9344 143.0528l1.9456 2.56a24.6784 24.6784 0 0 1-20.3264 38.4c-33.9968 0.3072-76.1344 2.9696-126.4128 7.936-91.2384 9.0624-121.1904 18.944-181.7088 24.832-40.3456 3.9424-80.9472 5.5808-121.8048 4.864v-43.008a799.232 799.232 0 0 1 75.4688-11.6736 1247.1296 1247.1296 0 0 1 109.312-7.5264 51.2 51.2 0 0 0 50.2272-51.4048l-1.28-282.2656c19.5072-3.1744 39.7824-6.144 67.6352-8.8576 31.744-3.1744 63.5392-5.376 95.488-6.656l31.9488-1.024z" p-id="8513"></path></svg>