<?xml version="1.0" encoding="UTF-8"?>
<svg width="16px" height="16px" viewBox="0 0 16 16" version="1.1" xmlns="http://www.w3.org/2000/svg" xmlns:xlink="http://www.w3.org/1999/xlink">
    <title>icon_gas</title>
    <g id="1" stroke="none" stroke-width="1" fill="none" fill-rule="evenodd">
        <g id="Farming" transform="translate(-1088.000000, -280.000000)">
            <g id="7" transform="translate(320.000000, 156.000000)">
                <g id="198" transform="translate(744.000000, 0.000000)">
                    <g id="icon_16px_gas" transform="translate(24.000000, 124.000000)">
                        <rect id="" x="0" y="0" width="16" height="16"></rect>
                        <path d="M14.8271179,10.2546706 C14.5635839,9.66540205 14.6568848,9.05649119 14.7469119,8.46885947 C14.8860448,7.55876689 15.054641,6.44406717 13.6060225,5.79259802 C13.702597,5.44558431 13.6944127,5.04619116 13.4014153,4.90542145 L11.6778047,4.07553487 C11.3013276,3.89384373 10.3192133,3.9331283 10.2029964,4.17210944 C10.0884164,4.41109059 9.77086615,4.90869516 10.5761999,5.09366002 C11.3815336,5.27862488 12.1312142,6.2214546 12.1312142,6.2214546 C12.4012956,6.4849886 12.7122985,6.64212689 12.9561902,6.6454006 C13.9219359,6.98423003 13.8679196,7.38034946 13.725513,8.31172118 C13.622391,8.97792204 13.496353,9.80944548 13.8842882,10.6769798 C14.4080825,11.8456958 14.4391828,12.5331758 13.9874102,12.9751272 C13.4341525,13.5202006 12.6861087,13.3466938 12.2146939,13.0340541 C11.5779564,12.6117449 11.5681353,11.8309641 11.6254253,10.5935001 C11.6581624,9.89292519 11.6925364,9.16943433 11.4862924,8.55233918 C11.0263356,7.1839266 9.62027529,7.16755803 9.55480101,7.16755803 L8.92952157,7.16755803 L8.92952157,2.51724686 C8.92952157,2.23243372 8.69708786,2 8.41227471,2 L2.21677039,2 C1.9335941,2 1.69952353,2.23243372 1.69952353,2.51724686 L1.69952353,13.3630624 L1.18391353,13.3630624 C1.18391353,13.3630624 0.666666667,13.3630624 0.666666667,13.8803092 L0.666666667,14.3975561 L9.96728901,14.3975561 L9.96728901,13.8803092 C9.96728901,13.8803092 9.96728901,13.3630624 9.45004215,13.3630624 L8.93279529,13.3630624 L8.93279529,8.19877804 L9.55316415,8.19877804 C9.62845958,8.2004149 10.2930236,8.23151518 10.5107256,8.87971061 C10.6564059,9.31347776 10.6269424,9.91093062 10.597479,10.5443943 C10.540189,11.7507581 10.4763516,13.1175338 11.6467044,13.8934041 C12.1164825,14.2044069 12.6288187,14.3582715 13.1247865,14.3582715 C13.7124182,14.3582715 14.2771339,14.1405695 14.7141748,13.7117129 C15.8665222,12.5790078 15.1102942,10.8914081 14.8271179,10.2546706 Z M12.4749542,5.97265231 C12.3325476,5.97265231 12.2163307,5.85643545 12.2163307,5.71402888 C12.2163307,5.57162231 12.3325476,5.45540545 12.4749542,5.45540545 C12.6173607,5.45540545 12.7335776,5.57162231 12.7335776,5.71402888 C12.7335776,5.85643545 12.6189976,5.97265231 12.4749542,5.97265231 Z M7.89666471,6.64867431 C7.89666471,6.9318506 7.664231,7.16592117 7.37941785,7.16592117 L3.24962725,7.16592117 C2.96645097,7.16592117 2.73238039,6.93348746 2.73238039,6.64867431 L2.73238039,3.55010372 C2.73238039,3.26692744 2.96481411,3.03285686 3.24962725,3.03285686 L7.38105471,3.03285686 C7.664231,3.03285686 7.89830157,3.26529058 7.89830157,3.55010372 L7.89830157,6.64867431 L7.89666471,6.64867431 Z" id="shape" fill="#A4A5B2" fill-rule="nonzero"></path>
                    </g>
                </g>
            </g>
        </g>
    </g>
</svg>