<?xml version="1.0" encoding="UTF-8"?>
<svg width="48px" height="32px" viewBox="0 0 48 32" version="1.1" xmlns="http://www.w3.org/2000/svg" xmlns:xlink="http://www.w3.org/1999/xlink">
    <title>group 128@2x</title>
    <defs>
        <rect id="path-1" x="0" y="0" width="32" height="32"></rect>
    </defs>
    <g id="page-1" stroke="none" stroke-width="1" fill="none" fill-rule="evenodd">
        <g id="group-128">
            <g id="group-97">
                <mask id="mask-2" fill="white">
                    <use xlink:href="#path-1"></use>
                </mask>
                <g id="mask"></g>
                <g mask="url(#mask-2)" stroke="#EF814F">
                    <g transform="translate(1.000000, 7.000000)">
                        <path d="M12.4790849,14 L2.38486639,14 C1.28029689,14 0.384866393,13.1045695 0.384866393,12 L0.384866393,5" id="path" stroke-width="2"></path>
                        <path d="M12.2172023,6.64239356 L3.36483022,6.64239356 C1.5064858,6.64239356 0,5.15544312 0,3.32119678 C0,1.48695045 1.5064858,-1.24344979e-14 3.36483022,-1.24344979e-14 L12.6351698,-1.24344979e-14 C14.4935142,-1.24344979e-14 16,0.870829437 16,2.70507577" id="path" stroke-width="2"></path>
                        <path d="M29.6156356,9 L29.6156356,16 C29.6156356,17.1045695 28.7202051,18 27.6156356,18 L16.3848664,18 C15.2802969,18 14.3848664,17.1045695 14.3848664,16 L14.3848664,9" id="path" stroke-width="2"></path>
                        <path d="M17.3648302,4 L26.6351698,4 C28.4935142,4 30,5.48695045 30,7.32119678 C30,9.15544312 28.4935142,10.6423936 26.6351698,10.6423936 L17.3648302,10.6423936 C15.5064858,10.6423936 14,9.15544312 14,7.32119678 C14,5.48695045 15.5064858,4 17.3648302,4 Z" id="rect" stroke-width="2"></path>
                        <line x1="19.2059544" y1="7.24797003" x2="24.8416568" y2="7.24797003" id="path-14" stroke-width="1.5" stroke-linecap="round" stroke-linejoin="round"></line>
                        <line x1="5.03104088" y1="3.48506867" x2="10.6667433" y2="3.48506867" id="path-14b" stroke-width="1.5" stroke-linecap="round" stroke-linejoin="round"></line>
                        <line x1="5.03104088" y1="3.48506867" x2="10.6667433" y2="3.48506867" id="path-14b-2" stroke-width="1.5" stroke-linecap="round" stroke-linejoin="round"></line>
                        <line x1="5.03104088" y1="6.48506867" x2="5.00407861" y2="9.3292513" id="path-14b-3" stroke-width="1.5" stroke-linecap="round" stroke-linejoin="round"></line>
                        <line x1="24.0310409" y1="10.5613737" x2="24.0040786" y2="12.3292513" id="path-14b-4" stroke-width="1.5" stroke-linecap="round" stroke-linejoin="round"></line>
                        <line x1="26.0310409" y1="10.5613737" x2="26.0040786" y2="14.4758783" id="path-14b-5" stroke-width="1.5" stroke-linecap="round" stroke-linejoin="round"></line>
                    </g>
                </g>
            </g>
            <g id="arrow" transform="translate(32.000000, 9.000000)" fill-rule="nonzero">
                <rect id="rect" fill="#000000" opacity="0" x="0" y="0" width="16" height="16"></rect>
                <path d="M10.2194714,2.73183601 L14.7805286,7.29289322 C15.1710529,7.68341751 15.1710529,8.31658249 14.7805286,8.70710678 L10.2194714,13.268164 C9.8289471,13.6586883 9.19578212,13.6586883 8.80525783,13.268164 C8.61772145,13.0806276 8.51236461,12.8262737 8.51236461,12.5610572 L8.51236461,3.43894279 C8.51236461,2.88665804 8.96007986,2.43894279 9.51236461,2.43894279 C9.7775811,2.43894279 10.031935,2.54429963 10.2194714,2.73183601 Z" id="path" fill="#EF814F"></path>
            </g>
        </g>
    </g>
</svg>