<?xml version="1.0" standalone="no"?><!DOCTYPE svg PUBLIC "-//W3C//DTD SVG 1.1//EN" "http://www.w3.org/Graphics/SVG/1.1/DTD/svg11.dtd"><svg t="1652944340123" class="icon" viewBox="0 0 1024 1024" version="1.1" xmlns="http://www.w3.org/2000/svg" p-id="4844" xmlns:xlink="http://www.w3.org/1999/xlink" width="200" height="200"><defs><style type="text/css"></style></defs><path d="M341.333333 480a117.333333 117.333333 0 1 0 0 234.666667 117.333333 117.333333 0 0 0 0-234.666667z m0 64a53.333333 53.333333 0 1 1 0 106.666667 53.333333 53.333333 0 0 1 0-106.666667zM682.666667 480a117.333333 117.333333 0 1 0 0 234.666667 117.333333 117.333333 0 0 0 0-234.666667z m0 64a53.333333 53.333333 0 1 1 0 106.666667 53.333333 53.333333 0 0 1 0-106.666667zM512 138.666667a117.333333 117.333333 0 1 0 0 234.666666 117.333333 117.333333 0 0 0 0-234.666666z m0 64a53.333333 53.333333 0 1 1 0 106.666666 53.333333 53.333333 0 0 1 0-106.666666z" p-id="4845"></path><path d="M341.333333 650.666667A202.666667 202.666667 0 0 1 544 853.333333a32 32 0 1 1-64 0 138.666667 138.666667 0 0 0-277.333333 0 32 32 0 1 1-64 0A202.666667 202.666667 0 0 1 341.333333 650.666667z" p-id="4846"></path><path d="M682.666667 650.666667A202.666667 202.666667 0 0 1 885.333333 853.333333a32 32 0 1 1-64 0 138.666667 138.666667 0 0 0-277.333333 0 32 32 0 1 1-64 0A202.666667 202.666667 0 0 1 682.666667 650.666667zM512 309.333333A202.666667 202.666667 0 0 1 714.666667 512a32 32 0 1 1-64 0 138.666667 138.666667 0 0 0-277.333334 0 32 32 0 0 1-64 0A202.666667 202.666667 0 0 1 512 309.333333z" p-id="4847"></path></svg>