<?xml version="1.0" standalone="no"?><!DOCTYPE svg PUBLIC "-//W3C//DTD SVG 1.1//EN" "http://www.w3.org/Graphics/SVG/1.1/DTD/svg11.dtd"><svg t="1652865043455" class="icon" viewBox="0 0 1024 1024" version="1.1" xmlns="http://www.w3.org/2000/svg" p-id="3191" xmlns:xlink="http://www.w3.org/1999/xlink" width="200" height="200"><defs><style type="text/css"></style></defs><path d="M512 938.6496a426.6496 426.6496 0 1 1 0-853.2992 426.6496 426.6496 0 1 1 0 853.2992z m0-85.2992a341.3504 341.3504 0 1 0 0-682.7008 341.3504 341.3504 0 0 0 0 682.7008zM469.3504 640h85.2992v85.3504H469.3504V640z m85.2992-70.144v27.4944H469.3504v-64c0-23.552 19.0976-42.7008 42.6496-42.7008a64 64 0 1 0-62.7712-76.544L365.568 397.3632a149.4016 149.4016 0 1 1 189.1328 172.4416z" p-id="3192"></path></svg>