<?xml version="1.0" standalone="no"?><!DOCTYPE svg PUBLIC "-//W3C//DTD SVG 1.1//EN" "http://www.w3.org/Graphics/SVG/1.1/DTD/svg11.dtd"><svg t="1652951890388" class="icon" viewBox="0 0 1024 1024" version="1.1" xmlns="http://www.w3.org/2000/svg" p-id="8372" xmlns:xlink="http://www.w3.org/1999/xlink" width="200" height="200"><defs><style type="text/css"></style></defs><path d="M810.666667 53.333333a74.666667 74.666667 0 0 1 74.410666 68.522667L885.333333 128v435.157333h-64V128a10.666667 10.666667 0 0 0-8.234666-10.368L810.666667 117.333333H213.333333a10.666667 10.666667 0 0 0-10.368 8.234667L202.666667 128v768a10.666667 10.666667 0 0 0 8.234666 10.368L213.333333 906.666667h512v64H213.333333a74.666667 74.666667 0 0 1-74.410666-68.522667L138.666667 896V128a74.666667 74.666667 0 0 1 68.522666-74.410667L213.333333 53.333333h597.333334z" p-id="8373"></path><path d="M704 266.666667a32 32 0 0 1 4.352 63.701333l-4.352 0.298667H341.333333a32 32 0 0 1-4.352-63.701334L341.333333 266.666667h362.666667zM490.666667 416a32 32 0 0 1 4.352 63.701333l-4.352 0.298667H341.333333a32 32 0 0 1-4.352-63.701333L341.333333 416h149.333334zM970.666667 725.333333a245.333333 245.333333 0 1 0-490.666667 0 245.333333 245.333333 0 0 0 490.666667 0z m-64 0a181.333333 181.333333 0 1 1-362.666667 0 181.333333 181.333333 0 0 1 362.666667 0z" p-id="8374"></path><path d="M725.333333 608a32 32 0 0 1 31.701334 27.648l0.298666 4.352v106.666667a32 32 0 0 1-63.701333 4.352l-0.298667-4.352V640a32 32 0 0 1 32-32z" p-id="8375"></path><path d="M810.666667 714.666667a32 32 0 0 1 4.352 63.701333L810.666667 778.666667h-85.333334a32 32 0 0 1-4.352-63.701334L725.333333 714.666667h85.333334z" p-id="8376"></path></svg>