<?xml version="1.0" standalone="no"?><!DOCTYPE svg PUBLIC "-//W3C//DTD SVG 1.1//EN" "http://www.w3.org/Graphics/SVG/1.1/DTD/svg11.dtd"><svg t="1652944357748" class="icon" viewBox="0 0 1024 1024" version="1.1" xmlns="http://www.w3.org/2000/svg" p-id="4981" xmlns:xlink="http://www.w3.org/1999/xlink" width="200" height="200"><defs><style type="text/css"></style></defs><path d="M597.333333 96H341.333333A117.333333 117.333333 0 0 0 224 213.333333v279.253334l490.666667-230.570667V213.333333l-0.256-7.552A117.589333 117.589333 0 0 0 597.333333 96z m-256 64h256a53.333333 53.333333 0 0 1 53.205334 49.322667l0.170666 5.205333-0.042666 6.826667-362.666667 170.410666V213.333333c0-29.44 23.893333-53.333333 53.333333-53.333333zM426.666667 860.288h256a117.333333 117.333333 0 0 0 117.333333-117.333333V437.333333l-490.666667 221.994667v83.626667a117.333333 117.333333 0 0 0 117.333334 117.333333z m0-64l-5.461334-0.298667a53.333333 53.333333 0 0 1-47.872-53.034666v-42.24l362.666667-164.096v206.336c0 29.44-23.893333 53.333333-53.333333 53.333333h-256zM775.936 312.277333a32 32 0 0 1 30.634667 56.021334l-3.84 2.090666-554.666667 256a32 32 0 0 1-30.634667-56.021333l3.84-2.090667 554.666667-256z" p-id="4982"></path></svg>