<?xml version="1.0" encoding="UTF-8"?>
<svg width="358px" height="118px" viewBox="0 0 358 118" version="1.1" xmlns="http://www.w3.org/2000/svg" xmlns:xlink="http://www.w3.org/1999/xlink">
    <defs>
        <polygon id="path-1" points="0 0 140 0 140 140 0 140"></polygon>
    </defs>
    <g  stroke="none" stroke-width="1" fill="none" fill-rule="evenodd">
        <g  transform="translate(-37.000000, -11.000000)">
            <g id="Fill-1-Clipped">
                <mask id="mask-2" fill="white">
                    <use xlink:href="#path-1"></use>
                </mask>
                <g id="path-2"></g>
                <path d="M102.101911,62.0743949 L87.9824204,59.6150317 L87.9824204,50.3661148 C87.9824204,48.0708281 86.1240765,46.2124842 83.8287898,46.2124842 L56.1712102,46.2124842 C53.8759235,46.2124842 52.0175796,48.0708281 52.0175796,50.3661148 L52.0175796,58.3006368 L102.101911,67.0484077 L102.101911,88.5031847 C102.101911,91.791847 100.309554,94.8129938 97.4257326,96.3913377 L71.5337581,110.557197 C70.5475159,111.095796 69.3526113,111.095796 68.3663694,110.555414 L42.5635669,96.3949046 C39.6850955,94.8147771 37.8980893,91.7954139 37.8980893,88.512102 L37.8980893,72.7143949 L52.0175796,75.1737581 L52.0175796,82.8817836 C52.0175796,83.752102 52.4955414,84.5457326 53.2356689,84.9398725 L69.4364331,94.1745224 C69.7538853,94.3564332 70.1444587,94.3582164 70.4619108,94.1763057 L86.7322292,84.9523566 C87.5026751,84.5475159 87.9824204,83.752102 87.9824204,82.88 L87.9824204,76.4578343 L37.8980893,67.7368153 L37.8980893,49.8061148 C37.8980893,41.5202547 43.7887898,34.2438216 51.9034394,32.5049682 L51.8998725,32.3284077 L51.8998725,29.0415287 L63.9434394,29.0415287 L63.9434394,32.0929936 L76.0565606,32.0929936 L76.0565606,29.0415287 L88.1001275,29.0415287 L88.1001275,32.3284077 L88.0965607,32.5049682 C96.2112102,34.2438216 102.101911,41.5202547 102.101911,49.8061148 L102.101911,62.0743949 Z" id="Fill-1" fill="#EF814E" fill-rule="nonzero" mask="url(#mask-2)"></path>
            </g>
            <g id="horter" transform="translate(108.800000, 30.800000)" fill="#000000" fill-rule="nonzero" opacity="0.701939174">
                <path d="M0,67.2 L0,0 L15.552,0 L15.552,19.872 C19.392,16.928 23.936,15.456 29.184,15.456 C33.152,15.456 36.656,16.32 39.696,18.048 C42.736,19.776 45.12,22.176 46.848,25.248 C48.576,28.32 49.44,31.872 49.44,35.904 L49.44,67.2 L33.888,67.2 L33.888,38.016 C33.888,35.2 33.056,32.96 31.392,31.296 C29.728,29.632 27.488,28.8 24.672,28.8 C22.688,28.8 20.944,29.152 19.44,29.856 C17.936,30.56 16.64,31.552 15.552,32.832 L15.552,67.2 L0,67.2 Z" id="h"></path>
                <path d="M81.552,66.704 C76.368,66.704 71.696,65.536 67.536,63.2 C63.376,60.864 60.08,57.712 57.648,53.744 C55.216,49.776 54,45.328 54,40.4 C54,35.45 55.2105,30.98125 57.6315,26.99375 C60.0525,23.00625 63.3485,19.84375 67.5195,17.50625 C71.6905,15.16875 76.368,14 81.552,14 C86.725,14 91.392,15.16875 95.553,17.50625 C99.714,19.84375 103.01275,23.00625 105.44925,26.99375 C107.88575,30.98125 109.104,35.45 109.104,40.4 C109.104,45.328 107.888,49.776 105.456,53.744 C103.024,57.712 99.72625,60.864 95.56275,63.2 C91.39925,65.536 86.729,66.704 81.552,66.704 Z M81.552,53.264 C83.92,53.264 86.03425,52.6915 87.89475,51.5465 C89.75525,50.4015 91.22725,48.85475 92.31075,46.90625 C93.39425,44.95775 93.936,42.7785 93.936,40.3685 C93.936,37.9575 93.3895,35.7745 92.2965,33.8195 C91.2035,31.8645 89.7185,30.3125 87.8415,29.1635 C85.9645,28.0145 83.871,27.44 81.561,27.44 C79.251,27.44 77.15575,28.0145 75.27525,29.1635 C73.39475,30.3125 71.90675,31.8645 70.81125,33.8195 C69.71575,35.7745 69.168,37.9575 69.168,40.3685 C69.168,42.7785 69.715,44.95775 70.809,46.90625 C71.903,48.85475 73.389,50.4015 75.267,51.5465 C77.145,52.6915 79.24,53.264 81.552,53.264 Z" id="o"></path>
                <path d="M114,66.784 L114,16 L129.552,16 L129.552,21.088 C131.216,19.04 131.778638,17.9894141 134.018638,16.9334141 C136.258638,15.8774141 137.601971,16.096 140.56,16 C143.312,16.064 146.491833,16 148.4,16 L148.4,28.96 C144.644406,28.96 142.318609,28.96 141.422609,28.96 C138.990609,28.96 136.098638,29.2201342 134.018638,30.3401342 C131.938638,31.4601342 130.832,32.48 129.552,34.528 L129.552,66.784 L114,66.784 Z" id="r"></path>
                <path d="M180.704,67.512 C174.624,67.512 170.032,66.152 166.928,63.432 C163.824,60.712 162.272,56.696 162.272,51.384 L162.272,29.016 L152,29.016 L152,16.056 L162.272,16.056 L162.272,3 L177.824,3 L177.824,16.056 L192.032,16.056 L192.032,29.016 L177.824,29.016 L177.824,48.312 C177.824,50.552 178.32,52.136 179.312,53.064 C180.304,53.992 182.048,54.456 184.544,54.456 C185.824,54.456 186.992,54.376 188.048,54.216 C189.104,54.056 190.272,53.784 191.552,53.4 L191.552,65.976 C190.144,66.424 188.352,66.792 186.176,67.08 C184,67.368 182.176,67.512 180.704,67.512 Z" id="t"></path>
                <path d="M222.648,67.608 C217.464,67.608 212.776,66.44 208.584,64.104 C204.392,61.768 201.08,58.616 198.648,54.648 C196.216,50.68 195,46.232 195,41.304 C195,36.376 196.168,31.928 198.504,27.96 C200.84,23.992 204.024,20.84 208.056,18.504 C212.088,16.168 216.568,15 221.496,15 C226.488,15 230.904,16.2 234.744,18.6 C238.584,21 241.608,24.28 243.816,28.44 C246.024,32.6 247.128,37.368 247.128,42.744 L247.128,46.584 L210.936,46.584 C211.64,48.184 212.584,49.592 213.768,50.808 C214.952,52.024 216.376,52.968 218.04,53.64 C219.704,54.312 221.496,54.648 223.416,54.648 C225.528,54.648 227.448,54.312 229.176,53.64 C230.904,52.968 232.376,52.024 233.592,50.808 L243.864,59.928 C240.664,62.616 237.384,64.568 234.024,65.784 C230.664,67 226.872,67.608 222.648,67.608 Z M210.648,35.736 L231.864,35.736 C231.352,34.072 230.568,32.648 229.512,31.464 C228.456,30.28 227.224,29.352 225.816,28.68 C224.408,28.008 222.872,27.672 221.208,27.672 C219.48,27.672 217.912,27.992 216.504,28.632 C215.096,29.272 213.896,30.184 212.904,31.368 C211.912,32.552 211.16,34.008 210.648,35.736 Z" id="e"></path>
                <path d="M252,66.784 L252,16 L267.552,16 L267.552,21.088 C269.216,19.04 269.778638,17.9894141 272.018638,16.9334141 C274.258638,15.8774141 275.601971,16.096 278.56,16 C281.312,16.064 284.491833,16 286.4,16 L286.4,28.96 C282.644406,28.96 280.318609,28.96 279.422609,28.96 C276.990609,28.96 274.098638,29.2201342 272.018638,30.3401342 C269.938638,31.4601342 268.832,32.48 267.552,34.528 L267.552,66.784 L252,66.784 Z"></path>
            </g>
        </g>
    </g>
</svg>