<?xml version="1.0" standalone="no"?><!DOCTYPE svg PUBLIC "-//W3C//DTD SVG 1.1//EN" "http://www.w3.org/Graphics/SVG/1.1/DTD/svg11.dtd"><svg t="1652946123942" class="icon" viewBox="0 0 1024 1024" version="1.1" xmlns="http://www.w3.org/2000/svg" p-id="6883" xmlns:xlink="http://www.w3.org/1999/xlink" width="200" height="200"><defs><style type="text/css"></style></defs><path d="M213.333333 640m-85.333333 0a85.333333 85.333333 0 1 0 170.666667 0 85.333333 85.333333 0 1 0-170.666667 0Z" fill="#E4B89F" p-id="6884"></path><path d="M810.666667 640m-85.333334 0a85.333333 85.333333 0 1 0 170.666667 0 85.333333 85.333333 0 1 0-170.666667 0Z" fill="#E4B89F" p-id="6885"></path><path d="M170.666667 256m170.666666 0l341.333334 0q170.666667 0 170.666666 170.666667l0 426.666666q0 170.666667-170.666666 170.666667l-341.333334 0q-170.666667 0-170.666666-170.666667l0-426.666666q0-170.666667 170.666666-170.666667Z" fill="#FFCFB3" p-id="6886"></path><path d="M341.333333 256h341.333334a170.666667 170.666667 0 0 1 170.666666 170.666667v213.333333l-42.666666-118.826667c-38.954667 0.042667-68.096-3.072-87.338667-9.429333-42.794667-14.165333-85.589333-42.496-128.384-85.077333-41.386667 36.778667-97.066667 62.208-167.125333 76.288-39.936 8.021333-111.36 11.946667-214.186667 11.861333L170.666667 640v-213.333333a170.666667 170.666667 0 0 1 170.666666-170.666667z" fill="#333333" p-id="6887"></path><path d="M384 597.333333m-42.666667 0a42.666667 42.666667 0 1 0 85.333334 0 42.666667 42.666667 0 1 0-85.333334 0Z" fill="#333333" p-id="6888"></path><path d="M640 597.333333m-42.666667 0a42.666667 42.666667 0 1 0 85.333334 0 42.666667 42.666667 0 1 0-85.333334 0Z" fill="#333333" p-id="6889"></path><path d="M298.666667 682.666667m42.666666 0l341.333334 0q42.666667 0 42.666666 42.666666l0 42.666667q0 42.666667-42.666666 42.666667l-341.333334 0q-42.666667 0-42.666666-42.666667l0-42.666667q0-42.666667 42.666666-42.666666Z" fill="#FFFFFF" p-id="6890"></path></svg>