<?xml version="1.0" standalone="no"?><!DOCTYPE svg PUBLIC "-//W3C//DTD SVG 1.1//EN" "http://www.w3.org/Graphics/SVG/1.1/DTD/svg11.dtd"><svg t="1652944323786" class="icon" viewBox="0 0 1024 1024" version="1.1" xmlns="http://www.w3.org/2000/svg" p-id="4708" xmlns:xlink="http://www.w3.org/1999/xlink" width="200" height="200"><defs><style type="text/css"></style></defs><path d="M928 682.666667V341.333333A202.666667 202.666667 0 0 0 725.333333 138.666667H298.666667A202.666667 202.666667 0 0 0 96 341.333333v341.333334A202.666667 202.666667 0 0 0 298.666667 885.333333h426.666666A202.666667 202.666667 0 0 0 928 682.666667z m-64-341.333334v341.333334A138.666667 138.666667 0 0 1 725.333333 821.333333H298.666667A138.666667 138.666667 0 0 1 160 682.666667V341.333333A138.666667 138.666667 0 0 1 298.666667 202.666667h426.666666A138.666667 138.666667 0 0 1 864 341.333333z" p-id="4709"></path><path d="M692.864 365.354667a32 32 0 0 1 55.210667 32l-2.389334 4.096-116.48 170.453333a74.666667 74.666667 0 0 1-100.181333 18.56l-5.546667-3.925333-79.530666-61.610667a10.666667 10.666667 0 0 0-12.928 0.64l-1.92 2.133333-104.021334 151.722667a32 32 0 0 1-55.210666-32.085333l2.389333-4.096L376.32 491.52a74.666667 74.666667 0 0 1 98.048-22.954667l7.082667 4.522667 81.237333 62.848a10.666667 10.666667 0 0 0 12.928 0.085333l2.389333-2.517333 114.858667-168.106667z" p-id="4710"></path></svg>