<?xml version="1.0" standalone="no"?><!DOCTYPE svg PUBLIC "-//W3C//DTD SVG 1.1//EN" "http://www.w3.org/Graphics/SVG/1.1/DTD/svg11.dtd"><svg t="1652942003751" class="icon" viewBox="0 0 1024 1024" version="1.1" xmlns="http://www.w3.org/2000/svg" p-id="3734" xmlns:xlink="http://www.w3.org/1999/xlink" width="200" height="200"><defs><style type="text/css"></style></defs><path d="M958.324364 46.545455L574.045091 330.891636l71.447273-167.563636z" fill="#E17726" p-id="3735"></path><path d="M71.912727 46.545455l380.881455 286.999272-68.026182-170.216727L71.912727 46.545455z m748.078546 659.316363l-102.260364 156.183273 218.949818 60.276364 62.696728-213.061819-179.386182-3.397818z m-788.712728 3.397818L93.556364 922.298182l218.554181-60.276364-101.841454-156.206545-179.037091 3.421091z" fill="#E27625" p-id="3736"></path><path d="M300.357818 441.972364l-60.765091 91.741091 216.669091 9.844363-7.237818-233.192727-148.666182 131.607273z m429.521455 0l-150.900364-134.213819-4.933818 235.845819 216.669091-9.867637-60.834909-91.764363z m-417.745455 420.072727l131.141818-63.301818-112.872727-87.970909-18.269091 151.272727z m274.850909-63.301818l130.746182 63.301818-17.850182-151.272727-112.896 87.970909z" fill="#E27625" p-id="3737"></path><path d="M717.730909 862.045091l-130.792727-63.301818 10.705454 84.945454-1.186909 35.979637 121.274182-57.623273z m-405.573818 0l121.623273 57.646545-0.768-36.026181 10.263272-84.945455-131.118545 63.325091z" fill="#D5BFB2" p-id="3738"></path><path d="M436.061091 654.661818l-108.683636-31.837091 76.753454-35.258182 31.930182 67.095273z m158.138182 0l31.883636-67.095273 77.195636 35.258182-109.079272 31.837091z" fill="#233447" p-id="3739"></path><path d="M312.133818 862.045091l19.037091-156.16-120.878545 3.374545 101.841454 152.785455z m386.955637-156.16l18.641454 156.16 102.237091-152.785455-120.878545-3.397818z m91.648-172.171636l-216.692364 9.890909 20.154182 111.057454 31.883636-67.095273 77.195636 35.258182 87.45891-89.134545z m-463.36 89.134545l76.753454-35.281455 31.930182 67.095273 20.154182-111.057454-216.669091-9.867637 87.808 89.088z" fill="#CC6228" p-id="3740"></path><path d="M239.546182 533.713455l90.856727 177.058909-3.025454-87.947637-87.831273-89.134545z m463.732363 89.134545l-3.42109 87.924364 90.833454-177.035637-87.412364 89.088z m-247.063272-79.243636l-20.154182 111.057454 25.460364 131.188364 5.72509-172.916364-11.031272-69.352727z m117.829818 0l-10.658909 68.980363 5.329454 173.265455 25.460364-131.188364-20.130909-111.057454z" fill="#E27525" p-id="3741"></path><path d="M594.199273 654.661818l-25.460364 131.188364 18.245818 12.869818 112.872728-87.947636 3.42109-87.947637-109.079272 31.837091z m-266.845091-31.837091l3.048727 87.970909 112.872727 87.924364 18.269091-12.869818-25.460363-131.188364-108.730182-31.837091z" fill="#F5841F" p-id="3742"></path><path d="M596.456727 919.691636l1.163637-36.026181-9.890909-8.331637h-145.221819l-9.495272 8.331637 0.768 36.002909-121.623273-57.623273 42.565818 34.885818 86.318546 59.531636h147.828363l86.667637-59.531636 42.193454-34.885818z" fill="#C0AC9D" p-id="3743"></path><path d="M586.984727 798.72l-18.269091-12.869818h-107.147636l-18.245818 12.869818-10.24 84.945455 9.472-8.331637h145.221818l9.867636 8.331637z" fill="#161616" p-id="3744"></path><path d="M974.661818 349.463273l32.279273-156.928L958.324364 46.545455 586.961455 321.396364l142.94109 120.552727 201.821091 58.810182 44.474182-51.968-19.386182-14.033455 30.789819-28.043636-23.575273-18.199273 30.789818-23.505454-20.130909-15.546182zM23.272727 192.512l32.674909 156.951273-20.875636 15.569454 31.162182 23.505455-23.552 18.176 30.766545 28.066909-19.386182 14.033454 44.45091 51.898182 201.867636-58.740363 142.894545-120.552728L71.936 46.545455 23.272727 192.512z" fill="#763E1A" p-id="3745"></path><path d="M931.723636 500.736l-201.821091-58.763636 60.788364 91.764363-90.833454 177.035637 120.133818-1.512728h179.386182l-67.653819-208.523636z m-631.389091-58.763636l-201.797818 58.763636-67.304727 208.523636h179.060364l120.087272 1.512728-90.833454-177.035637 60.811636-91.764363z m273.687273 101.632l12.939637-222.208 58.530909-158.068364H384.768l58.507636 158.068364 12.939637 222.208 4.933818 69.748363 0.395636 172.497455h107.170909l0.372364-172.497455 4.957091-69.748363z" fill="#F5841F" p-id="3746"></path></svg>