<svg xmlns="http://www.w3.org/2000/svg" xmlns:xlink="http://www.w3.org/1999/xlink" fill="none" version="1.1" width="13.999999046325684" height="2" viewBox="0 0 13.999999046325684 2"><g style="mix-blend-mode:passthrough"><path d="M13,2L1,2L1,0L13,0L13,2ZM14,1Q14,1.0984914,13.9808,1.19509Q13.9616,1.2916889999999999,13.9239,1.382683Q13.8862,1.473678,13.8315,1.55557Q13.7767,1.637463,13.7071,1.7071070000000002Q13.6375,1.776751,13.5556,1.83147Q13.4737,1.886188,13.3827,1.923879Q13.2917,1.96157,13.1951,1.980785Q13.0985,2,13,2Q12.9015,2,12.8049,1.980785Q12.7083,1.96157,12.6173,1.923879Q12.5263,1.886188,12.4444,1.83147Q12.3625,1.776751,12.2929,1.7071070000000002Q12.2232,1.637463,12.1685,1.55557Q12.1138,1.473678,12.0761,1.382683Q12.0384,1.2916889999999999,12.0192,1.19509Q12,1.0984914,12,1Q12,0.9015086,12.0192,0.80491Q12.0384,0.708311,12.0761,0.617317Q12.1138,0.526322,12.1685,0.44443Q12.2232,0.362537,12.2929,0.29289299999999996Q12.3625,0.22324900000000003,12.4444,0.16852999999999996Q12.5263,0.11381200000000002,12.6173,0.076121Q12.7083,0.038429999999999964,12.8049,0.019214999999999982Q12.9015,0,13,0Q13.0985,0,13.1951,0.019214999999999982Q13.2917,0.038429999999999964,13.3827,0.076121Q13.4737,0.11381200000000002,13.5556,0.16852999999999996Q13.6375,0.22324900000000003,13.7071,0.29289299999999996Q13.7767,0.362537,13.8315,0.44443Q13.8862,0.526322,13.9239,0.617317Q13.9616,0.708311,13.9808,0.80491Q14,0.9015086,14,1ZM2,1Q2,1.0984914,1.980785,1.19509Q1.96157,1.2916889999999999,1.923879,1.382683Q1.886188,1.473678,1.83147,1.55557Q1.776751,1.637463,1.7071070000000002,1.7071070000000002Q1.637463,1.776751,1.55557,1.83147Q1.473678,1.886188,1.382683,1.923879Q1.2916889999999999,1.96157,1.19509,1.980785Q1.0984914,2,1,2Q0.9015086,2,0.80491,1.980785Q0.708311,1.96157,0.617317,1.923879Q0.526322,1.886188,0.44443,1.83147Q0.362537,1.776751,0.29289299999999996,1.7071070000000002Q0.22324900000000003,1.637463,0.16852999999999996,1.55557Q0.11381200000000002,1.473678,0.076121,1.382683Q0.038429999999999964,1.2916889999999999,0.019214999999999982,1.19509Q0,1.0984914,0,1Q0,0.9015086,0.019214999999999982,0.80491Q0.038429999999999964,0.708311,0.076121,0.617317Q0.11381200000000002,0.526322,0.16852999999999996,0.44443Q0.22324900000000003,0.362537,0.29289299999999996,0.29289299999999996Q0.362537,0.22324900000000003,0.44443,0.16852999999999996Q0.526322,0.11381200000000002,0.617317,0.076121Q0.708311,0.038429999999999964,0.80491,0.019214999999999982Q0.9015086,0,1,0Q1.0984914,0,1.19509,0.019214999999999982Q1.2916889999999999,0.038429999999999964,1.382683,0.076121Q1.473678,0.11381200000000002,1.55557,0.16852999999999996Q1.637463,0.22324900000000003,1.7071070000000002,0.29289299999999996Q1.776751,0.362537,1.83147,0.44443Q1.886188,0.526322,1.923879,0.617317Q1.96157,0.708311,1.980785,0.80491Q2,0.9015086,2,1Z" fill="#FF7F45" fill-opacity="1"/></g></svg>