<?xml version="1.0" encoding="UTF-8"?>
<svg width="32px" height="32px" viewBox="0 0 32 32" version="1.1" xmlns="http://www.w3.org/2000/svg" xmlns:xlink="http://www.w3.org/1999/xlink">
    <title>icon_32px_slowb</title>
    <defs>
        <circle id="path-1" cx="16" cy="16" r="16"></circle>
    </defs>
    <g id="" stroke="none" stroke-width="1" fill="none" fill-rule="evenodd">
        <g id="Dashboard--Join-Beta-Program-" transform="translate(-921.000000, -492.000000)">
            <g id="group-13" transform="translate(897.000000, 108.000000)">
                <g id="group-12" transform="translate(24.000000, 372.000000)">
                    <g id="icon_32px_slowb" transform="translate(0.000000, 12.000000)">
                        <mask id="mask-2" fill="white">
                            <use xlink:href="#path-1"></use>
                        </mask>
                        <g id="m"></g>
                        <g id="group-105" mask="url(#mask-2)" fill="#EF9D78" fill-rule="nonzero">
                            <path d="M16,0 C7.1634375,0 0,7.1634375 0,16 C0,24.8365625 7.1634375,32 16,32 C24.8365625,32 32,24.8365625 32,16 C32,7.1634375 24.8365625,0 16,0 Z" id="path" opacity="0.100000001"></path>
                            <path d="M22.9394951,14.0023726 C22.6188443,11.2998053 21.3088534,9.32955206 19.7005436,9.33333878 L12.2606886,9.35104115 C10.6519574,9.35483334 9.35165762,11.3301429 9.04238348,14.0348169 C7.91231091,14.7072986 7.32957775,16.0779645 7.33335155,17.6635212 C7.33589807,18.8407855 7.66329045,19.8962783 8.29363667,20.6361767 L8.29995699,23.2650069 L11.223314,23.2582652 L11.2195218,21.7186362 L20.7990146,21.6954617 L20.8028068,23.2350907 L23.7261638,23.2279277 L23.7198435,20.5990975 C24.3468189,19.8570923 24.6695763,18.7994927 24.6666469,17.6222285 C24.663256,16.0396213 24.0733598,14.6702194 22.9394951,14.0023726 Z M12.2640594,10.354286 L19.7039144,10.3365857 C20.7396036,10.334061 21.6476224,11.7375926 21.9910263,13.6412719 C21.832597,13.6096703 21.666162,13.590288 21.493828,13.5801755 C21.493828,13.5759619 21.4984629,13.5675349 21.4946708,13.5679562 C20.0949314,13.571327 20.5322973,13.570063 19.5467493,13.5725911 C18.5612012,13.5751192 18.9071332,13.5738552 17.9241134,13.5763833 L10.7303293,13.5936588 C10.4690896,13.5940802 10.2221759,13.6223109 9.98874551,13.669924 C10.3254077,11.7637166 11.2283702,10.3563928 12.2640594,10.354286 Z M10.3321494,18.9773063 C9.69211199,18.9785684 9.17384606,18.3895149 9.17215652,17.6588863 C9.17047521,16.9295218 9.68621303,16.3366761 10.3258291,16.3349887 C10.9629169,16.3337267 11.4811829,16.9240442 11.4832938,17.6534087 C11.4849751,18.3853013 10.9696586,18.9756189 10.3321494,18.9773063 Z M19.3571398,18.7282838 L12.6483346,18.7362922 C11.6025329,18.7388177 11.5797798,16.9349994 12.6441211,16.9324713 L19.3529262,16.9164572 C20.3313112,16.9139317 20.3355247,18.7257557 19.3571398,18.7282838 Z M21.6741677,18.9499199 C21.0358158,18.9516017 20.5175498,18.3625482 20.5158603,17.6319196 C20.514179,16.9025551 21.0299168,16.3092881 21.6678474,16.3080204 C22.3066207,16.3063386 22.825308,16.8966562 22.8269937,17.626442 C22.8274148,18.3583347 22.3125197,18.9490736 21.6741677,18.9499199 Z" id="shape"></path>
                        </g>
                    </g>
                </g>
            </g>
        </g>
    </g>
</svg>