<?xml version="1.0" encoding="UTF-8"?>
<svg width="32px" height="32px" viewBox="0 0 32 32" version="1.1" xmlns="http://www.w3.org/2000/svg" xmlns:xlink="http://www.w3.org/1999/xlink">
    <title>icon_32px_averageb</title>
    <defs>
        <circle id="path-1" cx="16" cy="16" r="16"></circle>
    </defs>
    <g id="" stroke="none" stroke-width="1" fill="none" fill-rule="evenodd">
        <g id="Dashboard--Join-Beta-Program-" transform="translate(-921.000000, -436.000000)">
            <g id="group-13" transform="translate(897.000000, 108.000000)">
                <g id="ethb-2" transform="translate(24.000000, 316.000000)">
                    <g id="icon_32px_averageb" transform="translate(0.000000, 12.000000)">
                        <mask id="mask-2" fill="white">
                            <use xlink:href="#path-1"></use>
                        </mask>
                        <g id="m"></g>
                        <path d="M16,0 C7.1634375,0 0,7.1634375 0,16 C0,24.8365625 7.1634375,32 16,32 C24.8365625,32 32,24.8365625 32,16 C32,7.1634375 24.8365625,0 16,0 Z" id="path" fill="#F2CC57" fill-rule="nonzero" opacity="0.100000001" mask="url(#mask-2)"></path>
                        <g id="group-101" mask="url(#mask-2)" fill="#F2CC57" fill-rule="nonzero">
                            <g transform="translate(9.333333, 6.666667)">
                                <path d="M10.5205272,16.4433441 C10.5205272,16.6369796 10.3591861,16.7983207 10.1656556,16.7983207 L3.85279652,16.7983207 C3.65926602,16.7983207 3.49795123,16.6369796 3.49795123,16.4433441 L3.49795123,16.0884726 C3.49795123,15.8949421 3.65926602,15.7335748 3.85279652,15.7335748 L10.1656556,15.7335748 C10.3591861,15.7335748 10.5205272,15.8949421 10.5205272,16.0884726 L10.5205272,16.4433441 Z" id="path"></path>
                                <path d="M7.01455597,-5.32907052e-14 C7.98254975,-5.32907052e-14 8.76754156,0.79578289 8.76754156,1.7852013 L11.2195842,1.7852013 C12.6175932,1.7852013 13.0692694,2.80691417 13.1553355,4.09743251 L13.660757,11.7975096 C13.7253722,12.7546073 13.2951206,13.6150053 12.5854038,14.1311917 L13.9296675,16.4971682 C14.1125119,16.8305101 14.0049425,17.2392058 13.6930514,17.4219714 C13.3703956,17.6048421 12.9725698,17.4972464 12.7896991,17.1746956 L11.3486045,14.6366132 C11.230349,14.6581428 11.1012237,14.6689076 10.9829682,14.6689076 L3.0462488,14.6689076 C2.91722848,14.6689076 2.7988942,14.6581428 2.6806387,14.6366132 L1.23954412,17.1746956 C1.05667343,17.4972464 0.6480828,17.6048421 0.336191779,17.4219714 C0.0135359362,17.2392058 -0.0939547481,16.819719 0.0888109221,16.4971682 L1.43307461,14.1311917 C0.723357786,13.6150053 0.293106236,12.7546073 0.357721423,11.7975096 L0.863142936,4.09743251 C0.949182743,2.80691417 1.76649528,1.7852013 3.15384451,1.7852013 L5.26167539,1.7852013 C5.26167539,0.79578289 6.04669346,-5.32907052e-14 7.01455597,-5.32907052e-14 Z M10.8647126,8.94761489 C10.2839111,8.94761489 9.81067906,9.43153301 9.81067906,10.0229681 C9.81067906,10.6144557 10.2838849,11.0984525 10.8647126,11.0984525 C11.4454091,11.0984525 11.9186412,10.6144557 11.9186412,10.0229681 C11.9186412,9.43153301 11.4454091,8.94761489 10.8647126,8.94761489 Z M3.14307969,8.94761489 C2.56227817,8.94761489 2.08915112,9.43153301 2.08915112,10.0229681 C2.09991594,10.6144557 2.56227817,11.0984525 3.14307969,11.0984525 C3.72377619,11.0984525 4.19700826,10.6144557 4.19700826,10.0229681 C4.19700826,9.43153301 3.72377619,8.94761489 3.14307969,8.94761489 Z M11.2195842,3.58124618 L2.7988942,3.58124618 C2.41170194,3.58124618 2.09991594,3.903797 2.09991594,4.30172783 L2.09991594,7.16236108 C2.09991594,7.56031816 2.41170194,7.88297401 2.7988942,7.88297401 L11.2195842,7.88297401 C11.6067502,7.88297401 11.9186412,7.56031816 11.9186412,7.16236108 L11.9186412,4.30172783 C11.9186412,3.903797 11.6067502,3.58124618 11.2195842,3.58124618 Z" id="shape"></path>
                            </g>
                        </g>
                    </g>
                </g>
            </g>
        </g>
    </g>
</svg>