<?xml version="1.0" encoding="UTF-8"?>
<svg width="24px" height="24px" viewBox="0 0 24 24" version="1.1" xmlns="http://www.w3.org/2000/svg" xmlns:xlink="http://www.w3.org/1999/xlink">
    <title>icon_24px_gas</title>
    <g id="page-1" stroke="none" stroke-width="1" fill="none" fill-rule="evenodd">
        <g id="Dashboard--Join-Beta-Program-" transform="translate(-1127.000000, -64.000000)">
            <g id="group-99" transform="translate(1107.000000, 52.000000)">
                <g id="icon_24px_gas" transform="translate(20.000000, 12.000000)">
                    <rect id="rectangle" x="0" y="0" width="24" height="24"></rect>
                    <path d="M22.2406768,15.3820059 C21.8453758,14.4981031 21.9853271,13.5847368 22.1203678,12.7032892 C22.3290671,11.3381503 22.5819616,9.66610076 20.4090337,8.68889704 C20.5538955,8.16837646 20.5416191,7.56928674 20.102123,7.35813217 L17.5167071,6.1133023 C16.9519914,5.84076559 15.4788199,5.89969245 15.3044947,6.25816416 C15.1326247,6.61663588 14.6562992,7.36304274 15.8642998,7.64049003 C17.0723004,7.91793732 18.1968212,9.3321819 18.1968212,9.3321819 C18.6019434,9.7274829 19.0684477,9.96319033 19.4342853,9.9681009 C20.8829038,10.476345 20.8018794,11.0705242 20.5882695,12.4675818 C20.4335865,13.4668831 20.2445295,14.7141682 20.8264323,16.0154697 C21.6121237,17.7685437 21.6587741,18.7997637 20.9811153,19.4626908 C20.1512287,20.280301 19.0291631,20.0200407 18.3220408,19.5510811 C17.3669347,18.9176174 17.352203,17.7464461 17.438138,15.8902501 C17.4872437,14.8393878 17.5388047,13.7541515 17.2294387,12.8285088 C16.5395034,10.7758899 14.4304129,10.751337 14.3322015,10.751337 L13.3942824,10.751337 L13.3942824,3.77587029 C13.3942824,3.34865057 13.0456318,3 12.6184121,3 L3.32515559,3 C2.90039115,3 2.5492853,3.34865057 2.5492853,3.77587029 L2.5492853,20.0445935 L1.77587029,20.0445935 C1.77587029,20.0445935 1,20.0445935 1,20.8204638 L1,21.5963341 L14.9509335,21.5963341 L14.9509335,20.8204638 C14.9509335,20.8204638 14.9509335,20.0445935 14.1750632,20.0445935 L13.3991929,20.0445935 L13.3991929,12.2981671 L14.3297462,12.2981671 C14.4426894,12.3006223 15.4395354,12.3472728 15.7660884,13.3195659 C15.9846088,13.9702166 15.9404137,14.8663959 15.8962185,15.8165915 C15.8102835,17.6261371 15.7145274,19.6763007 17.4700567,20.8401061 C18.1747237,21.3066104 18.9432281,21.5374073 19.6871797,21.5374073 C20.5686273,21.5374073 21.4157008,21.2108543 22.0712621,20.5675694 C23.7997833,18.8685117 22.6654413,16.3371121 22.2406768,15.3820059 Z M18.7124313,8.95897847 C18.4988214,8.95897847 18.3244961,8.78465318 18.3244961,8.57104332 C18.3244961,8.35743346 18.4988214,8.18310817 18.7124313,8.18310817 C18.9260411,8.18310817 19.1003664,8.35743346 19.1003664,8.57104332 C19.1003664,8.78465318 18.9284964,8.95897847 18.7124313,8.95897847 Z M11.8449971,9.97301147 C11.8449971,10.3977759 11.4963465,10.7488818 11.0691268,10.7488818 L4.87444088,10.7488818 C4.44967645,10.7488818 4.09857059,10.4002312 4.09857059,9.97301147 L4.09857059,5.32515559 C4.09857059,4.90039115 4.44722116,4.5492853 4.87444088,4.5492853 L11.0715821,4.5492853 C11.4963465,4.5492853 11.8474524,4.89793587 11.8474524,5.32515559 L11.8474524,9.97301147 L11.8449971,9.97301147 Z" id="shape" fill="#333333" fill-rule="nonzero"></path>
                </g>
            </g>
        </g>
    </g>
</svg>