<?xml version="1.0" encoding="UTF-8"?>
<svg width="32px" height="32px" viewBox="0 0 32 32" version="1.1" xmlns="http://www.w3.org/2000/svg" xmlns:xlink="http://www.w3.org/1999/xlink">
    <title>icon_32px_fastb</title>
    <defs>
        <circle id="path-1" cx="16" cy="16" r="16"></circle>
    </defs>
    <g id="" stroke="none" stroke-width="1" fill="none" fill-rule="evenodd">
        <g id="Dashboard--Join-Beta-Program-" transform="translate(-921.000000, -380.000000)">
            <g id="group-13" transform="translate(897.000000, 108.000000)">
                <g id="ethb" transform="translate(24.000000, 260.000000)">
                    <g id="icon_32px_fastb" transform="translate(0.000000, 12.000000)">
                        <mask id="mask-2" fill="white">
                            <use xlink:href="#path-1"></use>
                        </mask>
                        <g id="m"></g>
                        <g id="group-104" mask="url(#mask-2)" fill-rule="nonzero">
                            <path d="M16,0 C7.1634375,0 0,7.1634375 0,16 C0,24.8365625 7.1634375,32 16,32 C24.8365625,32 32,24.8365625 32,16 C32,7.1634375 24.8365625,0 16,0 Z" id="pathb-28" fill="#51E290" opacity="0.100000001"></path>
                            <g id="group-100" transform="translate(4.500000, 8.000000)">
                                <path d="M14.801413,1.4472246 C14.801413,1.63113282 14.7308184,1.78032008 14.6437572,1.78032008 L11.7294775,2.31724836 L8.81846767,1.78032008 C8.73145353,1.78032008 8.6609295,1.63113282 8.6609295,1.4472246 C8.6609295,1.26319875 8.73145353,1.11403502 8.81846767,1.11403502 L14.6437572,1.11403502 C14.7308419,1.11405854 14.801413,1.26319875 14.801413,1.4472246 Z" id="path" fill="#51E290"></path>
                                <path d="M12.6103692,4.88968172 C12.6103692,5.23823227 12.0795571,5.52072829 11.7311007,5.52072829 C11.3826207,5.52072829 10.8517615,5.2382558 10.8517615,4.88968172 L11.1000541,0.630952474 C11.1000541,0.282566592 11.3825972,8.97001538e-13 11.7311007,8.97001538e-13 C12.0795336,8.97001538e-13 12.3622178,0.282566592 12.3622178,0.630952474 L12.6103692,4.88968172 Z" id="path" fill="#51E290"></path>
                                <path d="M6.75985089,7.95427778 C7.47539533,7.95427778 7.74749009,9.00128225 8.60163142,9.00128225 L8.77782746,9.0012491 L8.77782746,9.0012491 L9.65807499,9.00055695 C9.74192951,9.00046888 9.82816977,9.00037459 9.91661623,9.00027512 L10.4723328,8.99962442 C10.5688858,8.99950838 10.6672859,8.99938922 10.7673536,8.99926799 L11.3863335,8.99852404 C11.4923531,8.99839867 11.5996812,8.99827329 11.7081381,8.99814896 L12.37099,8.99742366 C12.4832443,8.99730761 12.5962684,8.99719467 12.7098827,8.99708587 L13.3972151,8.99649113 C13.5124722,8.99640306 13.6279604,8.9963212 13.7435003,8.9962466 L15.1209632,8.99576583 L15.1209632,8.99576583 C15.6682711,8.99576583 15.9373298,7.95427778 16.8144912,7.95427778 L23.3837263,7.95427778 L23.3837263,7.95427778 C23.7241377,7.95427778 24,8.23014012 24,8.57059852 C24,8.91086873 23.7241377,9.18670755 23.3837498,9.18670755 L11.9936486,10.1799484 L0.616132548,9.18670755 C0.275815292,9.18670755 0,8.91084521 0,8.57059852 C0,8.23014012 0.275815292,7.95427778 0.616132548,7.95427778 L6.75985089,7.95427778 L6.75985089,7.95427778 Z M4.41767884,8.05218339 L1.02426861,8.05218339 C1.00643646,8.05218339 0.989337396,8.05927997 0.976745826,8.07190685 C0.964154256,8.08453373 0.957105513,8.10165259 0.957155251,8.11948467 C0.957155251,8.13730238 0.964182059,8.15440068 0.976772271,8.16700854 C0.989362483,8.17961641 1.00645088,8.18669814 1.02426861,8.18669187 L1.02426861,8.18669187 L4.41767884,8.18669187 C4.45479097,8.18667888 4.48488604,8.1565968 4.48488604,8.11948467 C4.48488604,8.10164774 4.47782478,8.0845364 4.46522099,8.07191496 C4.4526172,8.05929352 4.43551577,8.05219586 4.41767884,8.05218339 L4.41767884,8.05218339 Z" id="shape" fill="#51E290"></path>
                                <path d="M11.8055532,3.91041394 C14.6985439,3.91041394 17.0438325,6.25560844 17.0438325,9.14876383 C17.0438325,12.041731 14.6985674,14.3869491 11.8055532,14.3869491 C8.91251539,14.3869491 6.56725032,12.0417546 6.56725032,9.14876383 C6.56725032,6.25560844 8.91251539,3.91041394 11.8055532,3.91041394 Z M13.8707534,6.48656405 L9.90218416,6.48656405 C9.88903196,6.48656405 9.8730341,6.49700907 9.8666493,6.50979292 L9.8666493,6.50979292 L8.63916629,8.96333519 C8.6327815,8.97609246 8.63830542,8.98656405 8.65145762,8.98656405 L8.65145762,8.98656405 L15.1215516,8.98656405 C15.1347038,8.98656405 15.1402517,8.97609246 15.133843,8.96333519 L15.133843,8.96333519 L13.9062882,6.50979292 C13.8999034,6.49700907 13.8839056,6.48656405 13.8707534,6.48656405 L13.8707534,6.48656405 Z" id="shape" fill="#51E290"></path>
                                <path d="M3.70787495,10.3119163 C3.70787495,10.8430813 3.27732081,11.2736119 2.74629698,11.2736119 C2.21534372,11.2736119 1.78460139,10.8430813 1.78460139,10.3119163 C1.78460139,9.78086897 2.21534372,9.35033835 2.74629698,9.35033835 C3.27732081,9.35036187 3.70787495,9.78086897 3.70787495,10.3119163 Z" id="path" fill="#59EA98"></path>
                                <path d="M3.27849699,10.3119163 C3.27849699,10.6057272 3.04017847,10.8441399 2.74629698,10.8441399 C2.45239197,10.8441399 2.21404992,10.6057272 2.21404992,10.3119163 C2.21404992,10.0180113 2.45241549,9.77959869 2.74629698,9.77959869 C3.04015494,9.77962221 3.27849699,10.0180113 3.27849699,10.3119163 Z" id="path" fill="#59EA98"></path>
                                <path d="M22.3509186,10.3119163 C22.3509186,10.8430813 21.9204586,11.2736119 21.3893171,11.2736119 C20.8581521,11.2736119 20.4278332,10.8430813 20.4278332,10.3119163 C20.4278332,9.78086897 20.8581521,9.35033835 21.3893171,9.35033835 C21.9204586,9.35036187 22.3509186,9.78086897 22.3509186,10.3119163 Z" id="path" fill="#59EA98"></path>
                                <path d="M21.9215171,10.3119163 C21.9215171,10.6057272 21.6832927,10.8441399 21.3893171,10.8441399 C21.0953886,10.8441399 20.8570936,10.6057272 20.8570936,10.3119163 C20.8570936,10.0180113 21.0953886,9.77959869 21.3893171,9.77959869 C21.6832927,9.77962221 21.9215171,10.0180113 21.9215171,10.3119163 Z" id="path" fill="#59EA98"></path>
                            </g>
                        </g>
                    </g>
                </g>
            </g>
        </g>
    </g>
</svg>