<?xml version="1.0" standalone="no"?><!DOCTYPE svg PUBLIC "-//W3C//DTD SVG 1.1//EN" "http://www.w3.org/Graphics/SVG/1.1/DTD/svg11.dtd"><svg t="1652945755635" class="icon" viewBox="0 0 1024 1024" version="1.1" xmlns="http://www.w3.org/2000/svg" p-id="6202" xmlns:xlink="http://www.w3.org/1999/xlink" width="200" height="200"><defs><style type="text/css"></style></defs><path d="M810.56 350.08l-4.48-8A68.16 68.16 0 0 0 782.72 320L631.68 232.64a64 64 0 0 0-32-8.64h-8.96a61.44 61.44 0 0 0-32 8.64L279.68 394.24a64 64 0 0 0-23.36 23.36l-4.48 8a64 64 0 0 0-8.64 32v184.32a64 64 0 0 0 8.64 32l4.48 8c5.76 9.6 13.76 17.6 23.36 23.36l151.04 86.08a64 64 0 0 0 32 8.64h8.96a61.44 61.44 0 0 0 32-8.64l279.04-161.6a64 64 0 0 0 23.36-23.36l4.48-8a64 64 0 0 0 8.64-32V382.08a64 64 0 0 0-8.64-32zM583.552 263.936h8.96l123.52 61.824L435.2 480l-128-64.064 276.352-152z m167.168 287.68L499.2 672V540.16l256-124.16v127.616l-4.48 8z" p-id="6203"></path></svg>