<svg xmlns="http://www.w3.org/2000/svg" xmlns:xlink="http://www.w3.org/1999/xlink" fill="none" version="1.1" width="14" height="14" viewBox="0 0 14 14"><g style="mix-blend-mode:passthrough"><g style="mix-blend-mode:passthrough"><path d="M13,8L1,8L1,6L13,6L13,8ZM14,7Q14,7.0984914,13.9808,7.19509Q13.9616,7.291689,13.9239,7.382683Q13.8862,7.473678,13.8315,7.55557Q13.7767,7.637463,13.7071,7.707107Q13.6375,7.776751,13.5556,7.83147Q13.4737,7.886188,13.3827,7.923879Q13.2917,7.96157,13.1951,7.980785Q13.0985,8,13,8Q12.9015,8,12.8049,7.980785Q12.7083,7.96157,12.6173,7.923879Q12.5263,7.886188,12.4444,7.83147Q12.3625,7.776751,12.2929,7.707107Q12.2232,7.637463,12.1685,7.55557Q12.1138,7.473678,12.0761,7.382683Q12.0384,7.291689,12.0192,7.19509Q12,7.0984914,12,7Q12,6.9015086,12.0192,6.80491Q12.0384,6.708311,12.0761,6.617317Q12.1138,6.526322,12.1685,6.44443Q12.2232,6.362537,12.2929,6.292893Q12.3625,6.223249,12.4444,6.16853Q12.5263,6.113812,12.6173,6.076121Q12.7083,6.03843,12.8049,6.019215Q12.9015,6,13,6Q13.0985,6,13.1951,6.019215Q13.2917,6.03843,13.3827,6.076121Q13.4737,6.113812,13.5556,6.16853Q13.6375,6.223249,13.7071,6.292893Q13.7767,6.362537,13.8315,6.44443Q13.8862,6.526322,13.9239,6.617317Q13.9616,6.708311,13.9808,6.80491Q14,6.9015086,14,7ZM2,7Q2,7.0984914,1.980785,7.19509Q1.96157,7.291689,1.923879,7.382683Q1.886188,7.473678,1.83147,7.55557Q1.776751,7.637463,1.7071070000000002,7.707107Q1.637463,7.776751,1.55557,7.83147Q1.473678,7.886188,1.382683,7.923879Q1.2916889999999999,7.96157,1.19509,7.980785Q1.0984914,8,1,8Q0.9015086,8,0.80491,7.980785Q0.708311,7.96157,0.617317,7.923879Q0.526322,7.886188,0.44443,7.83147Q0.362537,7.776751,0.29289299999999996,7.707107Q0.22324900000000003,7.637463,0.16852999999999996,7.55557Q0.11381200000000002,7.473678,0.076121,7.382683Q0.038429999999999964,7.291689,0.019214999999999982,7.19509Q0,7.0984914,0,7Q0,6.9015086,0.019214999999999982,6.80491Q0.038429999999999964,6.708311,0.076121,6.617317Q0.11381200000000002,6.526322,0.16852999999999996,6.44443Q0.22324900000000003,6.362537,0.29289299999999996,6.292893Q0.362537,6.223249,0.44443,6.16853Q0.526322,6.113812,0.617317,6.076121Q0.708311,6.03843,0.80491,6.019215Q0.9015086,6,1,6Q1.0984914,6,1.19509,6.019215Q1.2916889999999999,6.03843,1.382683,6.076121Q1.473678,6.113812,1.55557,6.16853Q1.637463,6.223249,1.7071070000000002,6.292893Q1.776751,6.362537,1.83147,6.44443Q1.886188,6.526322,1.923879,6.617317Q1.96157,6.708311,1.980785,6.80491Q2,6.9015086,2,7Z" fill="#FF7F45" fill-opacity="1"/></g><g style="mix-blend-mode:passthrough" transform="matrix(0,1,-1,0,8,-6)"><path d="M19,2L7,2L7,0L19,0L19,2ZM20,1Q20,1.0984914,19.980800000000002,1.19509Q19.9616,1.2916889999999999,19.9239,1.382683Q19.886200000000002,1.473678,19.8315,1.55557Q19.776699999999998,1.637463,19.7071,1.7071070000000002Q19.6375,1.776751,19.5556,1.83147Q19.4737,1.886188,19.3827,1.923879Q19.2917,1.96157,19.1951,1.980785Q19.0985,2,19,2Q18.9015,2,18.8049,1.980785Q18.7083,1.96157,18.6173,1.923879Q18.5263,1.886188,18.4444,1.83147Q18.3625,1.776751,18.2929,1.7071070000000002Q18.2232,1.637463,18.1685,1.55557Q18.113799999999998,1.473678,18.0761,1.382683Q18.0384,1.2916889999999999,18.019199999999998,1.19509Q18,1.0984914,18,1Q18,0.9015086,18.019199999999998,0.80491Q18.0384,0.708311,18.0761,0.617317Q18.113799999999998,0.526322,18.1685,0.44443Q18.2232,0.362537,18.2929,0.29289299999999996Q18.3625,0.22324900000000003,18.4444,0.16852999999999996Q18.5263,0.11381200000000002,18.6173,0.076121Q18.7083,0.038429999999999964,18.8049,0.019214999999999982Q18.9015,0,19,0Q19.0985,0,19.1951,0.019214999999999982Q19.2917,0.038429999999999964,19.3827,0.076121Q19.4737,0.11381200000000002,19.5556,0.16852999999999996Q19.6375,0.22324900000000003,19.7071,0.29289299999999996Q19.776699999999998,0.362537,19.8315,0.44443Q19.886200000000002,0.526322,19.9239,0.617317Q19.9616,0.708311,19.980800000000002,0.80491Q20,0.9015086,20,1ZM8,1Q8,1.0984914,7.980785,1.19509Q7.96157,1.2916889999999999,7.923879,1.382683Q7.886188,1.473678,7.83147,1.55557Q7.776751,1.637463,7.707107,1.7071070000000002Q7.637463,1.776751,7.55557,1.83147Q7.473678,1.886188,7.382683,1.923879Q7.291689,1.96157,7.19509,1.980785Q7.0984914,2,7,2Q6.9015086,2,6.80491,1.980785Q6.708311,1.96157,6.617317,1.923879Q6.526322,1.886188,6.44443,1.83147Q6.362537,1.776751,6.292893,1.7071070000000002Q6.223249,1.637463,6.16853,1.55557Q6.113812,1.473678,6.076121,1.382683Q6.03843,1.2916889999999999,6.019215,1.19509Q6,1.0984914,6,1Q6,0.9015086,6.019215,0.80491Q6.03843,0.708311,6.076121,0.617317Q6.113812,0.526322,6.16853,0.44443Q6.223249,0.362537,6.292893,0.29289299999999996Q6.362537,0.22324900000000003,6.44443,0.16852999999999996Q6.526322,0.11381200000000002,6.617317,0.076121Q6.708311,0.038429999999999964,6.80491,0.019214999999999982Q6.9015086,0,7,0Q7.0984914,0,7.19509,0.019214999999999982Q7.291689,0.038429999999999964,7.382683,0.076121Q7.473678,0.11381200000000002,7.55557,0.16852999999999996Q7.637463,0.22324900000000003,7.707107,0.29289299999999996Q7.776751,0.362537,7.83147,0.44443Q7.886188,0.526322,7.923879,0.617317Q7.96157,0.708311,7.980785,0.80491Q8,0.9015086,8,1Z" fill="#FF7F45" fill-opacity="1"/></g></g></svg>