<svg xmlns="http://www.w3.org/2000/svg" xmlns:xlink="http://www.w3.org/1999/xlink" fill="none" version="1.1" width="24" height="24" viewBox="0 0 24 24"><defs><mask id="master_svg0_2457_1893"><g style="mix-blend-mode:passthrough"><rect x="0" y="0" width="24" height="24" rx="0" fill="#FFFFFF" fill-opacity="1"/></g></mask></defs><g style="mix-blend-mode:passthrough" mask="url(#master_svg0_2457_1893)"><g><path d="M12,19C7.58171,19,4,15.4183,4,11C4,6.58171,7.58171,3,12,3C16.418300000000002,3,20,6.58171,20,11C20,15.4183,16.418300000000002,19,12,19ZM12,4.50019C8.41029,4.50019,5.49981,7.41029,5.49981,11C5.49981,14.5901,8.41029,17.5002,12,17.5002C15.5897,17.5002,18.5002,14.5901,18.5002,11C18.5002,7.41029,15.5897,4.50019,12,4.50019ZM15.25,12.25L12,12.25C11.58582,12.24979,11.25021,11.91418,11.25,11.5L11.25,7C11.25,6.58573,11.58573,6.25,12,6.25C12.41427,6.25,12.75,6.58573,12.75,7L12.75,10.75L15.25,10.75C15.6643,10.75,16,11.08573,16,11.5C16,11.91427,15.6643,12.25,15.25,12.25Z" fill="#EF814E" fill-opacity="1"/><path d="M6.20172,16.798299999999998Q8.603439999999999,19.2,12,19.2Q15.3966,19.2,17.798299999999998,16.798299999999998Q20.2,14.3966,20.2,11Q20.2,7.60344,17.798299999999998,5.20172Q15.3966,2.8,12,2.8Q8.603439999999999,2.800003,6.20172,5.20172Q3.8,7.60344,3.8,11Q3.800003,14.3966,6.20172,16.798299999999998ZM4,11C4,15.4183,7.58171,19,12,19C16.418300000000002,19,20,15.4183,20,11C20,6.58171,16.418300000000002,3,12,3C7.58171,3,4,6.58171,4,11ZM5.49981,11C5.49981,7.41029,8.41029,4.50019,12,4.50019C15.5897,4.50019,18.5002,7.41029,18.5002,11C18.5002,14.5901,15.5897,17.5002,12,17.5002C8.41029,17.5002,5.49981,14.5901,5.49981,11ZM7.54518,6.54538Q9.39052,4.70019,12,4.70019Q14.6095,4.70019,16.4548,6.54538Q18.3002,8.39059,18.3002,11Q18.3002,13.6097,16.4548,15.455Q14.6095,17.3002,12,17.3002Q9.39049,17.3002,7.54518,15.455Q5.69981,13.6097,5.69981,11Q5.69981,8.3906,7.54518,6.54538ZM12,12.45L15.25,12.45Q15.6435,12.45,15.9218,12.17177Q16.2,11.89354,16.2,11.5Q16.2,11.10646,15.9218,10.82823Q15.6435,10.55,15.25,10.55L12.95,10.55L12.95,7Q12.95,6.60646,12.67177,6.32823Q12.39354,6.05,12,6.05Q11.60646,6.05,11.32823,6.32823Q11.05,6.60646,11.05,7L11.05,11.5001Q11.0502,11.89352,11.32834,12.17166Q11.606480000000001,12.4498,12,12.45ZM12.75,10.55L12.75,7C12.75,6.58573,12.41427,6.25,12,6.25C11.58573,6.25,11.25,6.58573,11.25,7L11.25,11.5C11.25021,11.91418,11.58582,12.24979,12,12.25L15.25,12.25C15.6643,12.25,16,11.91427,16,11.5C16,11.08573,15.6643,10.75,15.25,10.75L12.75,10.75L12.75,10.55Z" fill-rule="evenodd" fill="#EF814E" fill-opacity="1"/></g></g></svg>