<?xml version="1.0" standalone="no"?><!DOCTYPE svg PUBLIC "-//W3C//DTD SVG 1.1//EN" "http://www.w3.org/Graphics/SVG/1.1/DTD/svg11.dtd"><svg t="1652944276266" class="icon" viewBox="0 0 1024 1024" version="1.1" xmlns="http://www.w3.org/2000/svg" p-id="4435" xmlns:xlink="http://www.w3.org/1999/xlink" width="200" height="200"><defs><style type="text/css"></style></defs><path d="M501.333333 341.333333V256A160 160 0 0 0 341.333333 96H256A160 160 0 0 0 96 256v85.333333A160 160 0 0 0 256 501.333333h85.333333A160 160 0 0 0 501.333333 341.333333z m-64-85.333333v85.333333A96 96 0 0 1 341.333333 437.333333H256A96 96 0 0 1 160 341.333333V256A96 96 0 0 1 256 160h85.333333A96 96 0 0 1 437.333333 256zM928 768v-85.333333A160 160 0 0 0 768 522.666667h-85.333333A160 160 0 0 0 522.666667 682.666667v85.333333A160 160 0 0 0 682.666667 928h85.333333A160 160 0 0 0 928 768z m-64-85.333333v85.333333A96 96 0 0 1 768 864h-85.333333A96 96 0 0 1 586.666667 768v-85.333333A96 96 0 0 1 682.666667 586.666667h85.333333A96 96 0 0 1 864 682.666667zM458.666667 725.333333a160 160 0 1 0-320 0 160 160 0 0 0 320 0z m-64 0a96 96 0 1 1-192 0 96 96 0 0 1 192 0zM885.333333 298.666667a160 160 0 1 0-320 0 160 160 0 0 0 320 0z m-64 0a96 96 0 1 1-192 0 96 96 0 0 1 192 0z" p-id="4436"></path><path d="M330.666667 469.333333v128h-64v-128zM554.666667 693.333333v64h-128v-64zM757.333333 426.666667v128h-64v-128z" p-id="4437"></path></svg>