<?xml version="1.0" standalone="no"?><!DOCTYPE svg PUBLIC "-//W3C//DTD SVG 1.1//EN" "http://www.w3.org/Graphics/SVG/1.1/DTD/svg11.dtd"><svg t="1652946335817" class="icon" viewBox="0 0 1024 1024" version="1.1" xmlns="http://www.w3.org/2000/svg" p-id="7159" xmlns:xlink="http://www.w3.org/1999/xlink" width="200" height="200"><defs><style type="text/css"></style></defs><path d="M768 725.333333a85.333333 85.333333 0 0 1 85.333333 85.333334v42.666666a85.333333 85.333333 0 0 1-85.333333 85.333334H256a85.333333 85.333333 0 0 1-85.333333-85.333334v-42.666666a85.333333 85.333333 0 0 1 85.333333-85.333334h512z m0-256a85.333333 85.333333 0 0 1 85.333333 85.333334v42.666666a85.333333 85.333333 0 0 1-85.333333 85.333334H256a85.333333 85.333333 0 0 1-85.333333-85.333334v-42.666666a85.333333 85.333333 0 0 1 85.333333-85.333334h512z m68.181333-300.970666l11.050667 41.216a85.333333 85.333333 0 0 1-60.330667 104.533333L292.266667 446.634667a85.333333 85.333333 0 0 1-104.490667-60.330667l-11.050667-41.216a85.333333 85.333333 0 0 1 60.330667-104.533333L731.733333 108.032a85.333333 85.333333 0 0 1 104.490667 60.330667z" p-id="7160"></path></svg>