<?xml version="1.0" standalone="no"?><!DOCTYPE svg PUBLIC "-//W3C//DTD SVG 1.1//EN" "http://www.w3.org/Graphics/SVG/1.1/DTD/svg11.dtd"><svg t="1652941231997" class="icon" viewBox="0 0 1024 1024" version="1.1" xmlns="http://www.w3.org/2000/svg" p-id="3056" xmlns:xlink="http://www.w3.org/1999/xlink" width="200" height="200"><defs><style type="text/css"></style></defs><path d="M360.277333 125.155556v91.022222h-184.888889a16.099556 16.099556 0 0 0-15.701333 12.401778l-0.398222 3.697777v616.334223c0 7.623111 5.290667 13.994667 12.401778 15.701333l3.697777 0.398222h616.334223a16.099556 16.099556 0 0 0 15.701333-12.401778l0.398222-3.697777v-195.697778h91.022222v195.697778c0 56.32-43.52 102.513778-98.759111 106.780444l-8.362666 0.341333H175.388444c-56.32 0-102.513778-43.52-106.780444-98.759111l-0.341333-8.362666V232.277333c0-56.32 43.52-102.513778 98.759111-106.780444l8.362666-0.341333h184.888889z m538.567111 0v333.141333h-91.022222l-0.056889-177.777778-255.032889 255.146667-64.398222-64.398222L743.537778 216.177778 565.703111 216.177778V125.155556H898.844444z" p-id="3057"></path></svg>