<?xml version="1.0" standalone="no"?><!DOCTYPE svg PUBLIC "-//W3C//DTD SVG 1.1//EN" "http://www.w3.org/Graphics/SVG/1.1/DTD/svg11.dtd"><svg t="1652944754028" class="icon" viewBox="0 0 1024 1024" version="1.1" xmlns="http://www.w3.org/2000/svg" p-id="5251" xmlns:xlink="http://www.w3.org/1999/xlink" width="200" height="200"><defs><style type="text/css"></style></defs><path d="M746.8032 454.0416l-103.2704-17.9968V368.384c0-16.768-13.5936-30.3616-30.3872-30.3616H410.88c-16.7936 0-30.3872 13.568-30.3872 30.3616v58.0352l366.336 64v156.928c0 24.064-13.1072 46.1312-34.2016 57.6768l-189.3888 103.6288a24.1408 24.1408 0 0 1-23.168 0l-188.7232-103.6032a65.7408 65.7408 0 0 1-34.1248-57.6512v-115.5328l103.2704 17.9712v56.3968c0 6.3488 3.5072 12.16 8.9088 15.0528l118.5024 67.5328c2.304 1.3312 5.1712 1.3312 7.5008 0l119.0144-67.456a17.0752 17.0752 0 0 0 9.1392-15.1552v-46.976l-366.336-63.7952V364.288a130.1504 130.1504 0 0 1 102.4512-126.5408l-0.0256-1.28v-24.064h88.064v22.3232h88.6016v-22.2976h88.0896v25.3184a130.1504 130.1504 0 0 1 102.4256 126.5408v89.7536zM512 0C229.2224 0 0 229.248 0 512c0 282.7776 229.2224 512 512 512s512-229.2224 512-512C1024 229.248 794.7776 0 512 0z" p-id="5252"></path></svg>