<?xml version="1.0" standalone="no"?><!DOCTYPE svg PUBLIC "-//W3C//DTD SVG 1.1//EN" "http://www.w3.org/Graphics/SVG/1.1/DTD/svg11.dtd"><svg t="1652945662552" class="icon" viewBox="0 0 1024 1024" version="1.1" xmlns="http://www.w3.org/2000/svg" p-id="6068" xmlns:xlink="http://www.w3.org/1999/xlink" width="200" height="200"><defs><style type="text/css"></style></defs><path d="M168.533333 295.424c0-3.456 1.322667-6.826667 3.712-9.301333l150.784-152.234667a12.714667 12.714667 0 0 1 18.048 0l150.869334 152.277333a13.226667 13.226667 0 0 1 2.688 14.208 12.586667 12.586667 0 0 1-11.818667 8.021334H389.546667v417.237333c0 11.52 9.216 20.906667 20.650666 20.992h105.088c3.413333 0 6.656 1.28 9.088 3.626667l100.906667 101.888a13.098667 13.098667 0 0 1 2.773333 14.208 12.970667 12.970667 0 0 1-11.861333 8.106666H387.84c-81.493333 0-124.586667-43.648-124.586667-126.208V308.394667H181.376a12.501333 12.501333 0 0 1-11.733333-8.021334 11.349333 11.349333 0 0 1-1.109334-4.949333z m268.928-128.64c0-1.706667 0.341333-3.413333 1.024-4.949333a12.586667 12.586667 0 0 1 11.733334-8.106667h228.352c81.536 0 124.586667 43.562667 124.586666 126.208v440.064h82.133334c5.12 0 9.813333 3.157333 11.861333 7.936a13.098667 13.098667 0 0 1-2.858667 14.208l-150.528 152.192a12.714667 12.714667 0 0 1-18.133333 0l-150.826667-152.192a13.056 13.056 0 0 1-0.170666-18.304 12.714667 12.714667 0 0 1 9.258666-3.84h93.013334V302.378667a20.736 20.736 0 0 0-20.650667-20.736h-104.96a12.885333 12.885333 0 0 1-9.173333-3.84l-100.821334-101.973334a12.672 12.672 0 0 1-3.84-9.088z" p-id="6069"></path></svg>