<?xml version="1.0" standalone="no"?><!DOCTYPE svg PUBLIC "-//W3C//DTD SVG 1.1//EN" "http://www.w3.org/Graphics/SVG/1.1/DTD/svg11.dtd"><svg t="1652946055023" class="icon" viewBox="0 0 1024 1024" version="1.1" xmlns="http://www.w3.org/2000/svg" p-id="6608" xmlns:xlink="http://www.w3.org/1999/xlink" width="200" height="200"><defs><style type="text/css"></style></defs><path d="M317.866667 224H213.333333a32 32 0 0 0-32 32v477.866667c0 17.664 14.336 32 32 32h104.533334a32 32 0 0 0 30.165333-21.333334l1.194667-4.394666c1.109333-5.376 4.778667-15.445333 11.648-25.258667 10.666667-15.232 25.045333-23.68 46.592-23.68 21.546667 0 35.925333 8.448 46.592 23.68 5.717333 8.192 9.216 16.554667 10.88 22.186667l0.768 3.072a32 32 0 0 0 31.36 25.728H810.666667a32 32 0 0 0 32-32V256a32 32 0 0 0-32-32h-313.6a32 32 0 0 0-30.165334 21.333333l-1.194666 4.394667a74.112 74.112 0 0 1-11.648 25.258667c-10.666667 15.232-25.045333 23.68-46.592 23.68-21.546667 0-35.925333-8.448-46.592-23.68a78.72 78.72 0 0 1-10.88-22.186667l-0.768-3.072a32 32 0 0 0-31.36-25.728z m460.8 64v413.866667h-258.730667l-0.298667-0.768a146.304 146.304 0 0 0-13.141333-22.912c-22.016-31.445333-55.253333-50.986667-99.029333-50.986667-43.776 0-77.013333 19.541333-98.986667 50.986667l-5.12 7.765333c-2.133333 3.413333-3.968 6.826667-5.674667 10.154667l-2.730666 5.76H245.333333v-413.866667h49.621334l0.341333 0.768c3.413333 7.381333 7.68 15.104 13.141333 22.912C330.453333 343.125333 363.690667 362.666667 407.466667 362.666667c43.776 0 77.013333-19.541333 98.986666-50.986667l5.12-7.765333c2.133333-3.413333 3.968-6.826667 5.674667-10.154667l2.688-5.76h258.730667z" p-id="6609"></path><path d="M407.466667 388.266667a32 32 0 0 1 31.701333 27.648l0.298667 4.352v29.866666a32 32 0 0 1-63.701334 4.352L375.466667 450.133333v-29.866666a32 32 0 0 1 32-32zM407.466667 507.733333a32 32 0 0 1 31.701333 27.648l0.298667 4.352v29.866667a32 32 0 0 1-63.701334 4.352L375.466667 569.6v-29.866667a32 32 0 0 1 32-32zM691.2 418.133333a32 32 0 0 1 4.352 63.701334l-4.352 0.298666h-164.266667a32 32 0 0 1-4.352-63.701333l4.352-0.298667h164.266667zM691.2 507.733333a32 32 0 0 1 4.352 63.701334l-4.352 0.298666h-164.266667a32 32 0 0 1-4.352-63.701333l4.352-0.298667h164.266667z" p-id="6610"></path></svg>