<?xml version="1.0" standalone="no"?><!DOCTYPE svg PUBLIC "-//W3C//DTD SVG 1.1//EN" "http://www.w3.org/Graphics/SVG/1.1/DTD/svg11.dtd"><svg t="1652945611658" class="icon" viewBox="0 0 1024 1024" version="1.1" xmlns="http://www.w3.org/2000/svg" p-id="5931" xmlns:xlink="http://www.w3.org/1999/xlink" width="200" height="200"><defs><style type="text/css"></style></defs><path d="M884.16 474.048A410.048 410.048 0 0 0 474.048 64v410.048c205.312 0.128 410.112 0.128 410.112 0z" p-id="5932"></path><path d="M932.16 474.048A458.048 458.048 0 0 0 474.176 16v96a362.048 362.048 0 0 1 361.984 362.048h96zM402.944 21.504a458.176 458.176 0 0 0-381.44 523.52l94.848-14.72a362.176 362.176 0 0 1 301.44-413.952L402.944 21.504zM38.144 615.04a458.24 458.24 0 0 0 435.904 317.056h127.744v-96H474.048A362.24 362.24 0 0 1 129.472 585.6L38.144 615.04z m627.648 317.056h177.344v-96h-177.28v96z" p-id="5933"></path><path d="M920.512 898.688l-95.04 73.344a32 32 0 0 1-51.52-25.344v-146.56a32 32 0 0 1 51.52-25.408l95.04 73.344a32 32 0 0 1 0 50.624z" p-id="5934"></path></svg>