<?xml version="1.0" standalone="no"?><!DOCTYPE svg PUBLIC "-//W3C//DTD SVG 1.1//EN" "http://www.w3.org/Graphics/SVG/1.1/DTD/svg11.dtd"><svg t="1652945301242" class="icon" viewBox="0 0 1024 1024" version="1.1" xmlns="http://www.w3.org/2000/svg" p-id="5793" xmlns:xlink="http://www.w3.org/1999/xlink" width="200" height="200"><defs><style type="text/css"></style></defs><path d="M512 512m-512 0a512 512 0 1 0 1024 0 512 512 0 1 0-1024 0Z" fill="#FF7F45" opacity=".04" p-id="5794"></path><path d="M204.8 204.8h614.4v614.4H204.8z" fill="#FFFFFF" fill-opacity=".01" p-id="5795"></path><path d="M768 281.6H256a25.6 25.6 0 0 0-25.6 25.6v384l0.064 1.92A25.6 25.6 0 0 0 256 716.8h181.3888l56.512 56.4992 1.6256 1.4976a25.6 25.6 0 0 0 34.5728-1.4976L586.5984 716.8H768a25.6 25.6 0 0 0 25.6-25.6V307.2a25.6 25.6 0 0 0-25.6-25.6z m-25.6 51.2v332.8H576l-2.2528 0.1024a25.6 25.6 0 0 0-15.8464 7.3984L512 718.976l-45.9008-45.888-1.664-1.536A25.6 25.6 0 0 0 448 665.6H281.6V332.8h460.8z" fill="#FF7F45" p-id="5796"></path><path d="M512 473.6a25.6 25.6 0 0 1 25.536 23.68L537.6 499.2v115.2a25.6 25.6 0 0 1-51.136 1.92L486.4 614.4v-115.2a25.6 25.6 0 0 1 25.6-25.6zM512 384a25.6 25.6 0 0 1 25.536 23.68L537.6 409.6v12.8a25.6 25.6 0 0 1-51.136 1.92L486.4 422.4v-12.8a25.6 25.6 0 0 1 25.6-25.6z" fill="#FF7F45" p-id="5797"></path></svg>