<?xml version="1.0" encoding="UTF-8"?>
<svg width="32px" height="32px" viewBox="0 0 32 32" version="1.1" xmlns="http://www.w3.org/2000/svg" xmlns:xlink="http://www.w3.org/1999/xlink">
    <defs>
        <circle id="path-1" cx="16" cy="16" r="16"></circle>
    </defs>
    <g  stroke="none" stroke-width="1" fill="none" fill-rule="evenodd" opacity="0.6">
        <g id="Pools-Token-Provider-Manage-Token-Lists-lists-Search-result" transform="translate(-485.000000, -501.000000)">
            <g id="statement/small/row" transform="translate(475.000000, 472.000000)">
                <g transform="translate(10.000000, 29.000000)">
                    <mask id="mask-2" fill="white">
                        <use xlink:href="#path-1"></use>
                    </mask>
                    <use  fill="#FFE0D2" xlink:href="#path-1"></use>
                    <g  mask="url(#mask-2)" fill="#D97547" fill-rule="nonzero">
                        <g transform="translate(11.000000, 9.000000)" id="shape">
                            <path d="M6.34350576,16 L4.62067187,16 L4.62067187,16 C4.33834638,15.9928523 4.11133389,15.7734141 4.10431414,15.5008725 L4.10431414,13.8377957 L4.10431414,13.8377963 C4.11170135,13.5655202 4.33861072,13.34648 4.62067186,13.3393486 L6.34350574,13.3393486 L6.34350573,13.3393486 C6.62556508,13.3464799 6.85247575,13.5655202 6.85986345,13.8377963 L6.85986345,15.5008731 L6.85986345,15.500873 C6.85284387,15.7734145 6.62583123,15.992853 6.34350573,16 L6.34350576,16 Z M6.30903493,12.0083385 L4.58690481,12.0083385 L4.58690482,12.0083385 C4.32627263,12.0140286 4.1102095,11.8146843 4.10431507,11.5630922 C4.10415417,11.5562246 4.10415417,11.5493543 4.10431507,11.5424867 L4.10431507,11.0426803 L4.10431505,11.0426858 C4.10981007,9.63435634 5.03480492,8.38248076 6.41245008,7.91890233 L6.41245002,7.91890234 C6.83707785,7.78342626 7.21727236,7.54242375 7.51481085,7.22012415 L7.51481084,7.22012416 C8.25362089,6.44650545 8.45027883,5.32506669 8.01639496,4.35982142 L8.01639487,4.35982123 C7.58568685,3.42534842 6.64439051,2.80652138 5.58585211,2.76193605 L5.45781788,2.76193605 L5.45781801,2.76193605 C4.74939108,2.76280845 4.06801603,3.02464084 3.55277291,3.49398858 L3.55277292,3.49398856 C3.11391629,3.87323628 2.83225884,4.39312485 2.75994486,4.95741427 L2.75994486,4.95741424 C2.70294569,5.18432214 2.48490346,5.33859655 2.24358715,5.32276115 L0.520758629,5.32276115 L0.520758619,5.32276115 C0.36957748,5.32483046 0.224593713,5.26484954 0.121882321,5.15774371 L0.121882303,5.15774369 C0.0296151313,5.05764379 -0.0134571001,4.92399919 0.00369695102,4.79103808 L0.0036967375,4.79103999 C0.143342113,3.54165248 0.727906455,2.37779749 1.65758719,1.4981606 L1.65758699,1.49816078 C2.70651032,0.531022292 4.10297301,-0.0059500279 5.55348586,4.97415321e-05 L5.68855501,4.97415321e-05 L5.68855472,4.97415321e-05 C8.56712799,0.117898476 10.8729053,2.34370086 10.9949379,5.12242994 L10.9949378,5.12242887 C11.0974865,7.43845888 9.63347022,9.55158063 7.37691684,10.3445918 L7.37691684,10.3445918 C7.08022679,10.4436565 6.87560958,10.7067489 6.85985537,11.0094146 L6.85985537,11.5085417 L6.85985537,11.5085416 C6.84953189,11.7925976 6.60407805,12.0156001 6.3097297,12.008348 L6.30903493,12.0083385 Z"></path>
                        </g>
                    </g>
                </g>
            </g>
        </g>
    </g>
</svg>