<?xml version="1.0" encoding="UTF-8"?>
<svg width="22px" height="22px" viewBox="0 0 22 22" version="1.1" xmlns="http://www.w3.org/2000/svg" xmlns:xlink="http://www.w3.org/1999/xlink">
    <title>icon_22px_uniswap</title>
    <defs>
        <path d="M0,11 C0,14.9299214 2.09658807,18.5613187 5.5,20.5262794 C8.90341175,22.4912402 13.0965881,22.4912402 16.5,20.5262794 C19.9034118,18.5613187 22,14.9299214 22,11 C22,4.92486772 17.0751321,0 11,0 C4.92486772,0 0,4.92486772 0,11 Z" id="path-1"></path>
    </defs>
    <g id="page-1" stroke="none" stroke-width="1" fill="none" fill-rule="evenodd">
        <g id="Liquidation-Detail-Closing--Phase-2-Open" transform="translate(-353.000000, -716.000000)">
            <g id="group-63" transform="translate(321.000000, 644.000000)">
                <g id="icon_22px_uniswap" transform="translate(32.000000, 72.000000)">
                    <mask id="mask-2" fill="white">
                        <use xlink:href="#path-1"></use>
                    </mask>
                    <use id="mask" fill="#FFFFFF" fill-rule="nonzero" xlink:href="#path-1"></use>
                    <g id="group-13" mask="url(#mask-2)" fill-rule="nonzero">
                        <g transform="translate(0.000000, -2.095238)">
                            <path d="M0,13.0952381 C0,17.0251595 2.09658807,20.6565567 5.5,22.6215175 C8.90341175,24.5864783 13.0965881,24.5864783 16.5,22.6215175 C19.9034118,20.6565567 22,17.0251595 22,13.0952381 C22,7.02010579 17.0751321,2.09523808 11,2.09523808 C4.92486772,2.09523808 0,7.02010579 0,13.0952381 Z" id="mask" fill="#FFFFFF"></path>
                            <path d="M7.98285708,4.9080952 C7.74923804,4.8750952 7.73823804,4.86357139 7.84928566,4.85257139 C8.0609047,4.81904758 8.5506666,4.86357139 8.89585708,4.94161901 C9.69728564,5.13071425 10.4201428,5.62047615 11.1885713,6.47742852 L11.3886666,6.71157138 L11.6783332,6.66704757 C12.9134761,6.46642852 14.1821428,6.62252376 15.2397142,7.11228566 C15.528857,7.24533328 15.9856189,7.51247613 16.0411427,7.57952375 C16.0631427,7.60152375 16.0966665,7.74661899 16.1191904,7.89119042 C16.1967142,8.41447613 16.1637142,8.8036666 15.9966189,9.10433327 C15.9075713,9.2714285 15.9075713,9.31595231 15.9630951,9.46052374 C16.0076189,9.57157136 16.1411904,9.64961898 16.2637618,9.64961898 C16.5309046,9.64961898 16.8085237,9.22690469 16.9426189,8.63657136 L16.9981427,8.40295232 L17.0981903,8.51452375 C17.6659999,9.14833327 18.111238,10.0283333 18.1777618,10.6516666 L18.2002856,10.818238 L18.100238,10.6736666 C17.9331427,10.4175237 17.7770475,10.2504285 17.5659523,10.1058571 C17.187238,9.85023802 16.7865237,9.7721904 15.7294761,9.71666659 C14.7724761,9.66061898 14.2266666,9.58309517 13.6923809,9.40499993 C12.7799047,9.10433327 12.3126666,8.71461898 11.2330952,7.27885709 C10.7543333,6.64504757 10.4536666,6.29933329 10.1535237,6.01019043 C9.4966666,5.3758571 8.83980946,5.04166663 7.98285708,4.9080952 L7.98285708,4.9080952 Z" id="path" fill="#FF007A"></path>
                            <path d="M16.2747618,6.3218571 C16.2967618,5.898619 16.3528094,5.62047615 16.474857,5.3648571 C16.5193808,5.26428568 16.5639046,5.17523806 16.5754284,5.17523806 C16.5859046,5.17523806 16.5639046,5.25380948 16.5309046,5.3428571 C16.441857,5.58747615 16.4303332,5.93214281 16.4863808,6.3218571 C16.5639046,6.822619 16.5974284,6.88966662 17.1317142,7.43495233 C17.376857,7.69057137 17.6659999,8.01376185 17.7770475,8.14733327 L17.9666665,8.39195232 L17.7770475,8.21385708 C17.5434284,7.99123804 17.0091427,7.56852375 16.8865713,7.51247613 C16.8090475,7.46795233 16.7975237,7.46795233 16.7419999,7.52399994 C16.6974761,7.56852375 16.6864761,7.63504756 16.6864761,7.95771423 C16.6754761,8.45899994 16.6084284,8.77014279 16.441857,9.09333327 C16.3528094,9.25990469 16.3412856,9.22690469 16.4193332,9.03728565 C16.474857,8.89271422 16.4863808,8.82619041 16.4863808,8.34742851 C16.4863808,7.37890471 16.3748094,7.14528566 15.6959523,6.75609519 C15.4928201,6.63963213 15.2848568,6.53180577 15.0726189,6.43290471 C14.8945237,6.35538091 14.7609523,6.28833329 14.7724761,6.28833329 C14.7944761,6.26633329 15.4513332,6.45542852 15.7069523,6.56647614 C16.0966665,6.72257138 16.1637142,6.73409519 16.208238,6.72257138 C16.241238,6.68904757 16.2637618,6.59999995 16.2747618,6.3218571 L16.2747618,6.3218571 Z M8.43909518,7.98023804 C7.97185708,7.3343809 7.67119042,6.3328571 7.73823804,5.58747615 L7.76023804,5.35333329 L7.87180947,5.3758571 C8.0719047,5.40938091 8.41657137,5.54295234 8.58419041,5.64299996 C9.0294285,5.91014281 9.22952374,6.27680948 9.41861898,7.18980947 C9.47414279,7.45695233 9.55219041,7.76861899 9.58571421,7.86866661 C9.64123802,8.03628565 9.85285707,8.42547613 10.0309523,8.67009517 C10.1535237,8.84819041 10.0754761,8.93723803 9.79733326,8.91523803 C9.37409517,8.87071422 8.80680946,8.48099994 8.43909518,7.98023804 Z M15.7069523,12.8218094 C13.5032856,11.9313332 12.7243809,11.1634285 12.7243809,9.86123802 C12.7243809,9.67214279 12.7353809,9.51604755 12.7353809,9.51604755 C12.7463809,9.51604755 12.8244285,9.58309517 12.9244761,9.66061898 C13.3697142,10.0168094 13.8704761,10.1729047 15.2617142,10.3729999 C16.0746665,10.4955714 16.5419046,10.584619 16.9646189,10.7291904 C18.3113332,11.1744285 19.1462856,12.0869047 19.3463808,13.3220475 C19.4024284,13.678238 19.3689046,14.3576189 19.279857,14.7138094 C19.2018094,14.9919523 18.9791903,15.504238 18.9236665,15.515238 C18.9126665,15.515238 18.8901427,15.4597142 18.8901427,15.3706666 C18.8681427,14.9029047 18.6345237,14.4576666 18.2448094,14.1129999 C17.7770475,13.7122856 17.176238,13.4110951 15.7069523,12.8218094 L15.7069523,12.8218094 Z M14.1491428,13.1889999 C14.1262488,13.0301831 14.0889034,12.8737879 14.0375713,12.7217618 L13.9820475,12.5541428 L14.0820951,12.677238 C14.2266666,12.8438094 14.338238,13.0439047 14.4382856,13.3225713 C14.5163332,13.5341904 14.5163332,13.6007142 14.5163332,13.9459047 C14.5163332,14.2795713 14.5053332,14.3576189 14.4382856,14.5467142 C14.3394369,14.8267559 14.1798814,15.0814724 13.9710475,15.2926189 C13.5703332,15.7043332 13.0470475,15.9269523 12.3011428,16.0269999 C12.1675713,16.0379999 11.7893809,16.0715237 11.4557142,16.0940475 C10.6207618,16.1385713 10.0644761,16.2276189 9.5631904,16.4057142 C9.4966666,16.4277142 9.42961898,16.450238 9.41861898,16.4387142 C9.39661898,16.4167142 9.74128564,16.2160951 10.0199523,16.0825237 C10.4091428,15.8939523 10.8098571,15.7933808 11.6893332,15.6372856 C12.1230475,15.5707618 12.5682856,15.4817142 12.6793332,15.4371904 C13.7814285,15.0919999 14.327238,14.2350475 14.1491428,13.1889999 L14.1491428,13.1889999 Z" id="shape" fill="#FF007A"></path>
                            <path d="M15.1616666,14.9809523 C14.8725237,14.3466189 14.8054761,13.7452856 14.9615713,13.1779999 C14.9835713,13.1219523 15.0060951,13.0664285 15.0280951,13.0664285 C15.0506189,13.0664285 15.1171427,13.0999523 15.1841904,13.1444761 C15.3177618,13.2335237 15.5959046,13.3890951 16.3082856,13.7788094 C17.209238,14.2685713 17.7215237,14.6467618 18.0777142,15.0809999 C18.3893808,15.4597142 18.5784761,15.8934285 18.6675237,16.4277142 C18.7235713,16.7283808 18.6900475,17.4517618 18.6119999,17.7524284 C18.3673808,18.6984284 17.8105713,19.4548094 16.9986665,19.8895713 C16.9238625,19.9330713 16.8455401,19.9702175 16.7645237,20.0006189 C16.7535237,20.0006189 16.7980475,19.8890475 16.8645713,19.755476 C17.1317142,19.1881903 17.165238,18.6429046 16.9646189,18.0305713 C16.8425713,17.651857 16.5864284,17.1956189 16.0741427,16.4277142 C15.4623332,15.537238 15.3177618,15.3036189 15.1616666,14.9809523 L15.1616666,14.9809523 Z M6.86976185,18.3867618 C7.69371423,17.6963808 8.70623803,17.2071427 9.64123802,17.0510475 C10.0419523,16.9845237 10.7098094,17.0065237 11.0769999,17.1065713 C11.6668094,17.2626665 12.2010951,17.5963332 12.479238,18.0080475 C12.7463809,18.4087618 12.8689523,18.7539522 12.9915237,19.521857 C13.0360475,19.8225237 13.0915713,20.1341903 13.1025713,20.2007141 C13.1916189,20.6014284 13.3697142,20.9130951 13.5923332,21.0801903 C13.9375237,21.3363332 14.5383332,21.3473332 15.1281427,21.1247141 C15.2287142,21.0911903 15.3177618,21.0576665 15.3177618,21.0691903 C15.3397618,21.0911903 15.0390951,21.2918094 14.8389999,21.391857 C14.560857,21.5364284 14.338238,21.5809522 14.0375713,21.5809522 C13.5032856,21.5809522 13.0475713,21.3028094 12.679857,20.7459998 C12.6018094,20.6349522 12.446238,20.3122856 12.3126666,20.0116189 C11.9229523,19.1101427 11.7228571,18.8429999 11.2660952,18.5423332 C10.8653809,18.2867141 10.353619,18.2306665 9.96390469,18.4202856 C9.45214279,18.6649046 9.31857136,19.321238 9.67476183,19.722476 C9.81933326,19.8890475 10.0864761,20.0226189 10.3090952,20.0561427 C10.5039934,20.0819384 10.7005031,20.0219748 10.8477964,19.8917619 C10.9950898,19.761549 11.0786996,19.5738761 11.0769999,19.3772856 C11.0769999,19.1101427 10.9769523,18.9540475 10.7098094,18.8319999 C10.353619,18.6759046 9.96390469,18.8539999 9.9754285,19.1986665 C9.9754285,19.3437618 10.0419523,19.4328094 10.1865237,19.499857 C10.2755714,19.5443808 10.2755714,19.5443808 10.2090475,19.532857 C9.88638088,19.4663332 9.80833326,19.0656189 10.0644761,18.8099999 C10.3761428,18.4978094 11.0324761,18.6319046 11.2550952,19.0656189 C11.3441428,19.2437141 11.3551428,19.5999046 11.277619,19.8225237 C11.0879999,20.3122856 10.5537142,20.5679046 10.0084285,20.4233332 C9.64176183,20.3232856 9.4856666,20.2232379 9.0404285,19.7669999 C8.26099994,18.9655713 7.96085708,18.8094761 6.84776185,18.6429046 L6.63614281,18.6093808 L6.86976185,18.3867618 L6.86976185,18.3867618 Z M1.01566666,0.478761901 C3.60852378,3.62842854 7.60466661,8.52552375 7.80476185,8.7926666 C7.97185708,9.01528565 7.90480946,9.22690469 7.62666661,9.38247612 C7.47109518,9.47152374 7.14842852,9.56057136 6.99285709,9.56057136 C6.81476185,9.56057136 6.602619,9.47152374 6.45857138,9.32695231 C6.35799995,9.22690469 5.92428567,8.59257136 4.94476187,7.06776185 C4.48719764,6.34761595 4.02325878,5.63154021 3.55299997,4.91961901 C3.50847616,4.8970952 3.50847616,4.8970952 4.86671425,7.32390471 C5.72366662,8.84819041 6.00180948,9.39347612 6.00180948,9.46052374 C6.00180948,9.60509517 5.95728567,9.68314278 5.77919043,9.88323802 C5.47852377,10.2174285 5.34495234,10.595619 5.24490472,11.3860475 C5.1338571,12.2649999 4.83319044,12.8883332 3.97623807,13.9459047 C3.47547616,14.569238 3.39742855,14.6802856 3.27485712,14.9359047 C3.11928569,15.2480951 3.07476188,15.4261904 3.05223807,15.8263808 C3.03023807,16.2496189 3.07476188,16.5167618 3.19733331,16.9174761 C3.30838093,17.2736665 3.43095236,17.5072856 3.73161902,17.9635237 C3.98723807,18.364238 4.1433333,18.6649046 4.1433333,18.7759522 C4.1433333,18.8649999 4.1653333,18.8649999 4.56604759,18.7759522 C5.52304758,18.553857 6.31347614,18.1751427 6.74771424,17.7073808 C7.01485709,17.418238 7.0813809,17.2621427 7.0813809,16.8619523 C7.0813809,16.6058094 7.0703809,16.5502856 7.00333328,16.3941904 C6.89228566,16.1495713 6.68066662,15.9489523 6.22442853,15.6378094 C5.62361901,15.2255713 5.36747615,14.8919047 5.30042853,14.4466666 C5.24490472,14.0684761 5.31195234,13.8123332 5.64614282,13.1109523 C5.99080948,12.3880951 6.0798571,12.0869047 6.13538091,11.3525237 C6.16890472,10.8852856 6.22442853,10.6956666 6.35799995,10.5510952 C6.50257138,10.3955237 6.62514281,10.3394761 6.97033328,10.2949523 C7.53761899,10.2174285 7.90480946,10.0723333 8.19447613,9.7941904 C8.45061898,9.56057136 8.5616666,9.32695231 8.5726666,8.98228565 L8.58419041,8.72561898 L8.43909518,8.57004756 C7.91633327,7.96923804 0.670999995,0 0.636952376,0 C0.626476186,0 0.804571423,0.211619046 1.01566666,0.478761901 Z M4.43247616,16.3051427 C4.55322163,16.0949996 4.48994082,15.8272026 4.28790473,15.6933332 C4.09880949,15.5707618 3.80914283,15.6262856 3.80914283,15.7933808 C3.80914283,15.8379046 3.83166664,15.8824285 3.89819045,15.9044285 C3.99823807,15.9604761 4.00976187,16.0159999 3.93171426,16.1385713 C3.85366664,16.2606189 3.85366664,16.3721904 3.95371426,16.450238 C4.10980949,16.5722856 4.32142854,16.5057618 4.43247616,16.3051427 Z M8.94038089,10.4510475 C8.67323803,10.5290952 8.41657137,10.818238 8.33904756,11.1079047 C8.29452375,11.2859999 8.31704756,11.6086666 8.39457137,11.7087142 C8.51714279,11.8642856 8.62871422,11.9088094 8.94038089,11.9088094 C9.55219041,11.9088094 10.0754761,11.6416666 10.1309999,11.3189999 C10.1865237,11.0518571 9.95290469,10.6851904 9.63023802,10.5175714 C9.46314279,10.4285237 9.11795231,10.3955237 8.94038089,10.4510475 L8.94038089,10.4510475 Z M9.65276183,11.0073333 C9.74180945,10.8737618 9.70828564,10.7297142 9.54119041,10.6291428 C9.24052374,10.4400475 8.78428565,10.595619 8.78428565,10.8852856 C8.78428565,11.0298571 9.01790469,11.1854285 9.24052374,11.1854285 C9.38509517,11.1854285 9.58571421,11.0963809 9.65223802,11.0073333 L9.65276183,11.0073333 Z" id="shape" fill="#FF007A"></path>
                        </g>
                    </g>
                </g>
            </g>
        </g>
    </g>
</svg>