<?xml version="1.0" standalone="no"?><!DOCTYPE svg PUBLIC "-//W3C//DTD SVG 1.1//EN" "http://www.w3.org/Graphics/SVG/1.1/DTD/svg11.dtd"><svg t="1652945866551" class="icon" viewBox="0 0 1024 1024" version="1.1" xmlns="http://www.w3.org/2000/svg" p-id="6337" xmlns:xlink="http://www.w3.org/1999/xlink" width="200" height="200"><defs><style type="text/css"></style></defs><path d="M727.4752 460.8H322.1248C299.776 460.8 281.6 478.72 281.6 500.8128v304C281.6 826.88 299.7504 844.8 322.1248 844.8h405.3504C749.824 844.8 768 826.88 768 804.7872V500.8128C768 478.72 749.8496 460.8 727.4752 460.8z m-8.1152 48v288H330.24v-288h389.12z" p-id="6338"></path><path d="M470.0416 236.0832a154.0352 154.0352 0 0 1 138.112 22.4512 23.7056 23.7056 0 1 1-28.0576 38.2208 106.624 106.624 0 0 0-95.6416-15.5136c-50.2784 16.0768-80.8192 65.9712-72.4736 116.8384l0.9216 4.9152 13.6192 64.1024a23.7056 23.7056 0 0 1-45.6448 12.544l-0.7168-2.688-13.6192-64.0768c-16.3328-76.4416 28.4672-152.832 103.5008-176.7936zM524.8 601.6a25.6 25.6 0 0 1 25.4208 22.6048l0.1792 2.9952v76.8a25.6 25.6 0 0 1-51.0208 2.9952L499.2 704v-76.8a25.6 25.6 0 0 1 25.6-25.6z" p-id="6339"></path></svg>