<?xml version="1.0" encoding="UTF-8"?>
<svg width="14px" height="14px" viewBox="0 0 14 14" version="1.1" xmlns="http://www.w3.org/2000/svg" xmlns:xlink="http://www.w3.org/1999/xlink">
    <title>tip</title>
    <g id="1" stroke="none" stroke-width="1" fill="none" fill-rule="evenodd">
        <g id="Pools-/-Running" transform="translate(-1109.000000, -297.000000)" fill="#EB6528" fill-rule="nonzero">
            <g id="46" transform="translate(1109.000000, 291.000000)">
                <g id="tip" transform="translate(0.000000, 6.000000)">
                    <path d="M7,0 C10.864,0 14,3.136 14,7 C14,10.864 10.864,14 7,14 C3.136,14 0,10.864 0,7 C0,3.136 3.136,0 7,0 Z M7,1.078 C3.731,1.078 1.078,3.731 1.078,7 C1.078,10.269 3.731,12.922 7,12.922 C10.269,12.922 12.922,10.269 12.922,7 C12.922,3.731 10.269,1.078 7,1.078 Z M7,9.226 C7.231,9.226 7.42,9.289 7.574,9.443 C7.721,9.583 7.798,9.765 7.798,9.989 C7.798,10.213 7.728,10.395 7.574,10.549 C7.406,10.689 7.217,10.766 7,10.766 C6.783,10.766 6.601,10.696 6.454,10.535 C6.293,10.388 6.216,10.206 6.216,9.989 C6.216,9.765 6.293,9.583 6.454,9.443 C6.601,9.289 6.783,9.226 7,9.226 Z M7.679,3.08 L7.434,8.596 L6.58,8.596 L6.335,3.08 L7.679,3.08 Z" id=""></path>
                </g>
            </g>
        </g>
    </g>
</svg>